<?xml version="1.0" encoding="utf-8"?>
<!-- Generator: Adobe Illustrator 16.0.0, SVG Export Plug-In . SVG Version: 6.00 Build 0)  -->
<!DOCTYPE svg PUBLIC "-//W3C//DTD SVG 1.1//EN" "http://www.w3.org/Graphics/SVG/1.1/DTD/svg11.dtd">
<svg version="1.1" xmlns="http://www.w3.org/2000/svg" xmlns:xlink="http://www.w3.org/1999/xlink" x="0px" y="0px"
	 width="137.333px" height="137.197px" viewBox="0 0 137.333 137.197" enable-background="new 0 0 137.333 137.197"
	 xml:space="preserve">
<g id="Layer_1">
</g>
<g id="Layer_2">
	<rect x="47.38" y="75.4" fill-rule="evenodd" clip-rule="evenodd" width="4.231" height="52.248"/>
	<rect x="38.288" y="92.438" width="13.323" height="5.762"/>
	<rect x="130.315" y="11.006" fill-rule="evenodd" clip-rule="evenodd" width="3.739" height="111.995"/>
	<rect x="69.175" y="19.458" fill-rule="evenodd" clip-rule="evenodd" width="4.232" height="40.164"/>
	<rect x="61.934" y="74.455" fill-rule="evenodd" clip-rule="evenodd" width="4.232" height="44.873"/>
	<rect x="76.557" y="85.438" fill-rule="evenodd" clip-rule="evenodd" width="4.232" height="22.21"/>
	<rect x="102.302" y="78.271" fill-rule="evenodd" clip-rule="evenodd" width="4.232" height="19.21"/>
	<rect x="40.283" y="20.835" fill-rule="evenodd" clip-rule="evenodd" width="4.232" height="21.697"/>
	<rect x="111.882" y="29.501" fill-rule="evenodd" clip-rule="evenodd" width="4.231" height="69.155"/>
	<rect x="86.03" y="11" fill-rule="evenodd" clip-rule="evenodd" width="4.232" height="22.197"/>
	<rect x="28.184" y="20.835" fill-rule="evenodd" clip-rule="evenodd" width="4.231" height="21.364"/>
	<rect x="3.646" y="19.286" fill-rule="evenodd" clip-rule="evenodd" width="3.739" height="113.125"/>
	<rect x="76.874" y="103.519" fill-rule="evenodd" clip-rule="evenodd" width="19.509" height="4.167"/>
	<rect x="83.11" y="51.555" fill-rule="evenodd" clip-rule="evenodd" width="18.748" height="4.167"/>
	<rect x="83.226" y="78.408" fill-rule="evenodd" clip-rule="evenodd" width="18.24" height="3.792"/>
	<rect x="99.651" y="95.283" fill-rule="evenodd" clip-rule="evenodd" width="16.462" height="3.792"/>
	<rect x="91.907" y="61.409" fill-rule="evenodd" clip-rule="evenodd" width="24.207" height="10.667"/>
	<rect x="3.819" y="94.602" fill-rule="evenodd" clip-rule="evenodd" width="18.735" height="10.667"/>
	<rect x="3.637" y="102.66" fill-rule="evenodd" clip-rule="evenodd" width="37.338" height="31.823"/>
	<rect x="85.368" y="37.568" fill-rule="evenodd" clip-rule="evenodd" width="23.233" height="4.167"/>
	<rect x="11.707" y="65.167" fill-rule="evenodd" clip-rule="evenodd" width="39.144" height="4.167"/>
	<rect x="15.283" y="32.802" fill-rule="evenodd" clip-rule="evenodd" width="4.232" height="22.21"/>
	<rect x="47.304" y="51.124" fill-rule="evenodd" clip-rule="evenodd" width="4.232" height="18.21"/>
	<rect x="39.932" y="65.167" fill-rule="evenodd" clip-rule="evenodd" width="4.232" height="18.21"/>
	<rect x="54.619" y="4.441" fill-rule="evenodd" clip-rule="evenodd" width="4.232" height="53.831"/>
	<rect x="69.279" y="74.541" fill-rule="evenodd" clip-rule="evenodd" width="4.232" height="53.373"/>
	<rect x="121.489" y="20.476" fill-rule="evenodd" clip-rule="evenodd" width="3.724" height="97.423"/>
	<rect x="100.668" y="20.505" fill-rule="evenodd" clip-rule="evenodd" width="23.529" height="3.667"/>
	<rect x="86.03" y="29.53" fill-rule="evenodd" clip-rule="evenodd" width="29.792" height="3.667"/>
	<rect x="6.852" y="19.286" fill-rule="evenodd" clip-rule="evenodd" width="36.774" height="3.667"/>
	<rect x="86.321" y="11" fill-rule="evenodd" clip-rule="evenodd" width="47.692" height="3.667"/>
	<rect x="3.702" y="130.863" fill-rule="evenodd" clip-rule="evenodd" width="124.545" height="3.619"/>
	<rect x="6.896" y="93.485" fill-rule="evenodd" clip-rule="evenodd" width="26.162" height="3.667"/>
	<rect x="88.481" y="113.926" fill-rule="evenodd" clip-rule="evenodd" width="35.462" height="3.967"/>
	<rect x="76.828" y="4.218" fill-rule="evenodd" clip-rule="evenodd" width="3.69" height="44.539"/>
	<rect x="84.048" y="37.703" fill-rule="evenodd" clip-rule="evenodd" width="3.691" height="21.945"/>
	<path fill-rule="evenodd" clip-rule="evenodd" fill="#FFFFFF" d="M87.603,78.052c-0.658,0.447-1.122,1.003-1.501,0.952
		c-0.384-0.052-0.898-0.682-0.945-1.104c-0.031-0.28,0.673-0.915,1.017-0.893C86.599,77.034,86.992,77.574,87.603,78.052z"/>
	<path fill-rule="evenodd" clip-rule="evenodd" fill="#FFFFFF" d="M102.953,96.066c-0.661,0.439-1.132,0.992-1.51,0.937
		c-0.383-0.056-0.888-0.694-0.93-1.116c-0.028-0.28,0.686-0.904,1.03-0.878C101.969,95.04,102.354,95.585,102.953,96.066z"/>
	<path fill-rule="evenodd" clip-rule="evenodd" fill="#FFFFFF" d="M30.548,39.106c-0.454-0.647-1.018-1.104-0.966-1.478
		c0.052-0.378,0.693-0.884,1.12-0.931c0.286-0.031,0.927,0.661,0.907,1.001C31.586,38.115,31.038,38.501,30.548,39.106z"/>
	<path fill-rule="evenodd" clip-rule="evenodd" fill="#FFFFFF" d="M105.884,22.612c-0.657,0.447-1.122,1.003-1.501,0.952
		c-0.384-0.052-0.898-0.682-0.945-1.104c-0.032-0.281,0.671-0.912,1.017-0.893C104.876,21.59,105.269,22.131,105.884,22.612z"/>
	<path fill-rule="evenodd" clip-rule="evenodd" fill="#FFFFFF" d="M97.104,116.118c-0.606,0.484-0.994,1.028-1.415,1.055
		c-0.347,0.022-1.055-0.603-1.026-0.883c0.043-0.422,0.553-1.061,0.933-1.112C95.98,115.125,96.447,115.678,97.104,116.118z"/>
	<path fill-rule="evenodd" clip-rule="evenodd" fill="#FFFFFF" d="M64.243,57.839c-0.481-0.63-1.064-1.063-1.029-1.438
		c0.037-0.383,0.647-0.918,1.073-0.988c0.281-0.046,0.96,0.614,0.957,0.954C65.24,56.784,64.711,57.197,64.243,57.839z"/>
	<path fill-rule="evenodd" clip-rule="evenodd" fill="#FFFFFF" d="M80.289,56.365c-0.611,0.482-1.002,1.024-1.424,1.048
		c-0.346,0.02-1.051-0.609-1.021-0.89c0.046-0.422,0.558-1.054,0.942-1.106C79.166,55.364,79.631,55.92,80.289,56.365z"/>
	<path fill-rule="evenodd" clip-rule="evenodd" fill="#FFFFFF" d="M86.169,4.161c0.373,0.516,0.818,0.866,0.781,1.155
		c-0.038,0.298-0.519,0.688-0.859,0.748c-0.205,0.036-0.726-0.487-0.716-0.744C85.387,4.989,85.792,4.674,86.169,4.161z"/>
	<path fill-rule="evenodd" clip-rule="evenodd" fill="#FFFFFF" d="M71.501,76.592c0.488,0.609,1.036,0.998,1.058,1.413
		c0.019,0.341-0.625,1.03-0.911,0.999c-0.428-0.048-1.065-0.557-1.118-0.935C70.479,77.694,71.045,77.239,71.501,76.592z"/>
	<path fill-rule="evenodd" clip-rule="evenodd" fill="#FFFFFF" d="M58.369,78.013c-0.648,0.467-1.096,1.035-1.478,0.995
		c-0.388-0.041-0.923-0.649-0.987-1.069c-0.043-0.278,0.637-0.937,0.981-0.93C57.31,77.018,57.722,77.543,58.369,78.013z"/>
	<path fill-rule="evenodd" clip-rule="evenodd" fill="#FFFFFF" d="M80,124.799c-0.52,0.375-0.869,0.818-1.163,0.785
		c-0.304-0.034-0.705-0.502-0.77-0.836c-0.04-0.201,0.484-0.721,0.746-0.715C79.147,124.041,79.473,124.435,80,124.799z"/>
	<path fill-rule="evenodd" clip-rule="evenodd" fill="#FFFFFF" d="M64.157,123.675c0.41,0.499,0.832,0.791,0.861,1.118
		c0.024,0.259-0.465,0.811-0.671,0.786c-0.343-0.041-0.844-0.402-0.902-0.699C63.39,124.595,63.813,124.22,64.157,123.675z"/>
	<path fill-rule="evenodd" clip-rule="evenodd" fill="#FFFFFF" d="M49.622,54.982c0.467,0.643,1.039,1.09,0.993,1.465
		c-0.045,0.38-0.671,0.901-1.098,0.957c-0.285,0.038-0.944-0.639-0.933-0.979C48.599,56.009,49.139,55.61,49.622,54.982z"/>
	<path fill-rule="evenodd" clip-rule="evenodd" fill="#FFFFFF" d="M43.74,77.988c-0.634,0.476-1.038,1.009-1.461,1.025
		c-0.345,0.013-1.034-0.634-0.998-0.915c0.056-0.42,0.582-1.038,0.969-1.084C42.63,76.969,43.086,77.531,43.74,77.988z"/>
	<path fill-rule="evenodd" clip-rule="evenodd" fill="#FFFFFF" d="M20.284,66.075c0.41,0.498,0.832,0.791,0.862,1.118
		c0.023,0.259-0.466,0.811-0.671,0.786c-0.343-0.041-0.85-0.404-0.902-0.698C19.521,66.989,19.942,66.615,20.284,66.075z"/>
	<path fill-rule="evenodd" clip-rule="evenodd" fill="#FFFFFF" d="M57.117,41.267c-0.454-0.648-1.019-1.104-0.967-1.478
		c0.053-0.378,0.693-0.884,1.121-0.931c0.285-0.031,0.93,0.663,0.908,1C58.151,40.278,57.602,40.665,57.117,41.267z"/>
	<path fill-rule="evenodd" clip-rule="evenodd" fill="#FFFFFF" d="M56.918,54.979c0.474,0.639,1.05,1.08,1.011,1.455
		c-0.042,0.382-0.66,0.909-1.086,0.972c-0.283,0.042-0.951-0.627-0.944-0.967C55.908,56.021,56.441,55.616,56.918,54.979z"/>
	<path fill-rule="evenodd" clip-rule="evenodd" fill="#FFFFFF" d="M23.287,39.122c-0.479-0.636-1.059-1.072-1.021-1.448
		c0.039-0.382,0.652-0.914,1.079-0.98c0.282-0.044,0.956,0.62,0.951,0.96C24.29,38.071,23.759,38.481,23.287,39.122z"/>
	<path fill-rule="evenodd" clip-rule="evenodd" fill="#FFFFFF" d="M42.255,57.83c-0.457-0.646-1.024-1.1-0.974-1.474
		c0.051-0.379,0.687-0.89,1.114-0.938c0.285-0.033,0.932,0.654,0.915,0.995C43.29,56.828,42.742,57.218,42.255,57.83z"/>
	<path fill-rule="evenodd" clip-rule="evenodd" fill="#FFFFFF" d="M49.554,79.424c-0.45-0.649-1.013-1.109-0.959-1.482
		c0.055-0.377,0.699-0.879,1.127-0.923c0.285-0.029,0.924,0.669,0.9,1.007C50.592,78.444,50.041,78.828,49.554,79.424z"/>
	<path fill-rule="evenodd" clip-rule="evenodd" fill="#FFFFFF" d="M50.751,124.84c-0.534,0.355-0.899,0.786-1.191,0.742
		c-0.302-0.045-0.687-0.526-0.739-0.862c-0.032-0.203,0.513-0.708,0.771-0.689C49.93,124.055,50.241,124.46,50.751,124.84z"/>
	<path fill-rule="evenodd" clip-rule="evenodd" fill="#FFFFFF" d="M104.409,41.27c-0.458-0.646-1.024-1.1-0.974-1.474
		c0.051-0.379,0.687-0.889,1.114-0.938c0.286-0.033,0.932,0.654,0.915,0.995C105.443,40.268,104.896,40.658,104.409,41.27z"/>
	<path fill-rule="evenodd" clip-rule="evenodd" fill="#FFFFFF" d="M87.614,56.388c-0.635,0.477-1.038,1.009-1.461,1.025
		c-0.346,0.013-1.035-0.634-0.998-0.915c0.056-0.42,0.582-1.038,0.969-1.084C86.504,55.369,86.959,55.931,87.614,56.388z"/>
	<path fill-rule="evenodd" clip-rule="evenodd" fill="#FFFFFF" d="M80.285,77.952c-0.602,0.485-0.987,1.031-1.408,1.06
		c-0.347,0.023-1.059-0.597-1.032-0.877c0.042-0.422,0.545-1.061,0.929-1.118C79.152,76.961,79.624,77.514,80.285,77.952z"/>
	<path fill-rule="evenodd" clip-rule="evenodd" fill="#FFFFFF" d="M81.02,96.059c-0.66,0.443-1.126,0.998-1.505,0.945
		c-0.383-0.054-0.894-0.688-0.938-1.109c-0.03-0.281,0.677-0.908,1.023-0.886C80.021,95.033,80.41,95.576,81.02,96.059z"/>
	<path fill-rule="evenodd" clip-rule="evenodd" fill="#FFFFFF" d="M97.121,106.108c-0.654,0.459-1.107,1.022-1.488,0.978
		c-0.387-0.045-0.915-0.661-0.972-1.081c-0.039-0.28,0.651-0.932,0.994-0.917C96.082,105.105,96.487,105.636,97.121,106.108z"/>
	<path fill-rule="evenodd" clip-rule="evenodd" fill="#FFFFFF" d="M60.542,106.146c-0.661,0.439-1.131,0.992-1.509,0.937
		c-0.383-0.056-0.888-0.694-0.93-1.116c-0.028-0.28,0.686-0.904,1.03-0.879C59.558,105.12,59.943,105.665,60.542,106.146z"/>
	<path fill-rule="evenodd" clip-rule="evenodd" fill="#FFFFFF" d="M59.051,114.759c0.492,0.593,1.047,0.972,1.076,1.386
		c0.024,0.341-0.606,1.043-0.891,1.016c-0.429-0.041-1.077-0.537-1.135-0.914C58.044,115.875,58.604,115.411,59.051,114.759z"/>
	<path fill-rule="evenodd" clip-rule="evenodd" fill="#FFFFFF" d="M64.178,79.424c-0.45-0.649-1.014-1.109-0.96-1.482
		c0.055-0.377,0.699-0.879,1.127-0.923c0.286-0.029,0.924,0.669,0.9,1.007C65.217,78.444,64.665,78.828,64.178,79.424z"/>
	<path fill-rule="evenodd" clip-rule="evenodd" fill="#FFFFFF" d="M67.899,24c-0.482-0.63-1.065-1.063-1.028-1.439
		c0.037-0.383,0.646-0.917,1.072-0.987c0.281-0.046,0.961,0.614,0.958,0.954C68.896,22.944,68.367,23.357,67.899,24z"/>
	<path fill-rule="evenodd" clip-rule="evenodd" fill="#FFFFFF" d="M69.328,39.818c-0.625,0.479-1.023,1.016-1.446,1.035
		c-0.346,0.016-1.041-0.624-1.006-0.905c0.051-0.42,0.572-1.044,0.957-1.094C68.213,38.807,68.672,39.366,69.328,39.818z"/>
	<path fill-rule="evenodd" clip-rule="evenodd" fill="#FFFFFF" d="M71.482,57.821c-0.446-0.651-1.007-1.114-0.951-1.487
		c0.057-0.376,0.705-0.874,1.134-0.915c0.285-0.027,0.918,0.676,0.892,1.014C72.525,56.852,71.971,57.231,71.482,57.821z"/>
	<path fill-rule="evenodd" clip-rule="evenodd" fill="#FFFFFF" d="M20.501,83.615c-0.524,0.367-0.878,0.805-1.172,0.769
		c-0.303-0.038-0.698-0.511-0.759-0.846c-0.038-0.202,0.495-0.716,0.755-0.706C19.66,82.845,19.98,83.243,20.501,83.615z"/>
	<polygon points="45.112,2.205 45.107,7.523 48.321,10.087 41.944,10.099 41.957,4.788 	"/>
	<polygon points="45.22,2.205 48.321,2.205 48.321,4.768 	"/>
	<polygon points="48.408,2.205 48.408,4.804 51.521,4.797 	"/>
	<polygon points="48.416,4.887 48.408,7.396 51.521,4.887 	"/>
	<polygon points="51.516,7.519 51.521,5.009 48.408,7.519 	"/>
	<polygon points="48.416,7.589 48.408,10.099 51.521,7.589 	"/>
	<polygon points="45.102,10.176 45.107,12.687 41.97,10.176 	"/>
	<g>
		<path d="M4.783,4.809v4.72h2.806v0.552H4.167V4.809H4.783z"/>
		<path d="M8.751,4.809v5.272H8.136V4.809H8.751z"/>
		<path d="M10.418,5.311v1.843h2.658v0.502h-2.658v2.426H9.802V4.809h3.346v0.502H10.418z"/>
		<path d="M14.199,5.311v1.796h2.77v0.502h-2.77v1.97h2.89v0.502h-3.505V4.809h3.505v0.502H14.199z"/>
		<path d="M17.88,10.081V4.809h2.291h0.208c0.616,0,1.035,0.115,1.259,0.344c0.224,0.229,0.335,0.658,0.335,1.286
			c0,0.603-0.117,1.014-0.35,1.232C21.39,7.89,20.952,7.999,20.31,7.999l-0.24,0.004h-1.575v2.078H17.88z M18.496,7.501h1.459
			c0.61,0,1.001-0.061,1.173-0.182s0.258-0.399,0.258-0.834c0-0.51-0.058-0.832-0.174-0.967s-0.391-0.203-0.825-0.203L20.15,5.311
			h-1.655V7.501z"/>
		<path d="M26.062,8.965H23.3l-0.42,1.116h-0.651l1.999-5.272h0.863l2.039,5.272h-0.644L26.062,8.965z M25.882,8.517L24.67,5.295
			l-1.195,3.221H25.882z"/>
		<path d="M29.591,5.361v4.72h-0.616v-4.72h-1.779V4.809h4.157v0.552H29.591z"/>
		<path d="M35.478,8.32h0.612v0.201c0,0.719-0.127,1.167-0.38,1.346s-0.89,0.269-1.911,0.269c-0.914,0-1.495-0.158-1.743-0.473
			c-0.248-0.315-0.372-1.058-0.372-2.227c0-0.914,0.028-1.489,0.084-1.725c0.056-0.235,0.216-0.446,0.479-0.631
			c0.309-0.216,0.977-0.325,2.002-0.325c0.696,0,1.164,0.104,1.405,0.313c0.241,0.208,0.361,0.612,0.361,1.209l0.004,0.143H35.41
			l-0.004-0.162c0-0.425-0.071-0.698-0.214-0.819c-0.143-0.121-0.464-0.182-0.965-0.182c-0.879,0-1.416,0.071-1.611,0.212
			c-0.194,0.142-0.292,0.534-0.292,1.178c0,1.48,0.065,2.348,0.196,2.603c0.13,0.255,0.577,0.382,1.339,0.382
			c0.725,0,1.177-0.055,1.357-0.166c0.18-0.11,0.27-0.389,0.27-0.834L35.478,8.32z"/>
		<path d="M41.206,4.809v5.272H40.59V7.636h-3.189v2.445h-0.616V4.809h0.616v2.325h3.189V4.809H41.206z"/>
	</g>
	<g>
		<path d="M4.9,11.038v0.255c-0.044-0.054-0.084-0.09-0.12-0.11c-0.035-0.021-0.076-0.031-0.123-0.031
			c-0.073,0-0.134,0.025-0.183,0.076c-0.048,0.051-0.073,0.114-0.073,0.19c0,0.078,0.023,0.142,0.07,0.192
			c0.047,0.05,0.108,0.075,0.181,0.075c0.047,0,0.088-0.01,0.124-0.03C4.812,11.637,4.853,11.6,4.9,11.543v0.254
			c-0.079,0.041-0.159,0.061-0.238,0.061c-0.131,0-0.24-0.042-0.328-0.125c-0.088-0.084-0.132-0.188-0.132-0.312
			s0.044-0.229,0.133-0.314s0.198-0.128,0.328-0.128C4.747,10.979,4.826,10.999,4.9,11.038z"/>
		<path d="M5.06,10.656c0-0.034,0.012-0.062,0.037-0.087c0.025-0.024,0.055-0.037,0.089-0.037c0.035,0,0.065,0.012,0.09,0.037
			c0.025,0.024,0.037,0.053,0.037,0.088c0,0.035-0.012,0.064-0.037,0.088c-0.024,0.025-0.054,0.037-0.089,0.037
			s-0.065-0.012-0.09-0.037C5.072,10.721,5.06,10.691,5.06,10.656z M5.284,11.002v0.832H5.089v-0.832H5.284z"/>
		<path d="M5.732,11.182v0.652H5.538v-0.652H5.454v-0.18h0.083v-0.305h0.195v0.305h0.152v0.18H5.732z"/>
		<path d="M5.988,10.656c0-0.034,0.012-0.062,0.037-0.087c0.025-0.024,0.055-0.037,0.089-0.037c0.035,0,0.065,0.012,0.09,0.037
			c0.025,0.024,0.037,0.053,0.037,0.088c0,0.035-0.012,0.064-0.037,0.088c-0.024,0.025-0.054,0.037-0.089,0.037
			s-0.065-0.012-0.09-0.037C6,10.721,5.988,10.691,5.988,10.656z M6.212,11.002v0.832H6.017v-0.832H6.212z"/>
		<path d="M6.74,11.653h0.502v0.181H6.353L6.9,11.182H6.469v-0.18h0.817L6.74,11.653z"/>
		<path d="M8.194,11.463H7.589c0.005,0.068,0.028,0.123,0.068,0.163c0.04,0.04,0.091,0.06,0.153,0.06
			c0.049,0,0.089-0.011,0.121-0.034c0.031-0.022,0.067-0.065,0.106-0.126l0.165,0.09c-0.025,0.042-0.052,0.079-0.081,0.11
			c-0.028,0.03-0.059,0.055-0.091,0.075c-0.032,0.02-0.067,0.034-0.105,0.043s-0.078,0.014-0.122,0.014
			c-0.126,0-0.228-0.04-0.304-0.12c-0.076-0.08-0.114-0.187-0.114-0.319c0-0.132,0.037-0.238,0.111-0.319
			c0.075-0.081,0.173-0.121,0.296-0.121c0.125,0,0.223,0.039,0.295,0.117c0.071,0.077,0.107,0.185,0.107,0.322L8.194,11.463z
			 M7.994,11.306c-0.027-0.103-0.093-0.154-0.197-0.154c-0.023,0-0.046,0.003-0.066,0.011c-0.021,0.007-0.04,0.018-0.057,0.031
			s-0.032,0.029-0.043,0.048c-0.012,0.019-0.021,0.04-0.028,0.064H7.994z"/>
		<path d="M8.408,11.002h0.196v0.077c0.068-0.067,0.145-0.1,0.23-0.1c0.099,0,0.175,0.03,0.23,0.091
			c0.047,0.052,0.071,0.136,0.071,0.254v0.51H8.939V11.37c0-0.082-0.011-0.139-0.035-0.17c-0.022-0.032-0.063-0.048-0.123-0.048
			c-0.065,0-0.111,0.021-0.138,0.063c-0.026,0.042-0.04,0.114-0.04,0.218v0.401H8.408V11.002z"/>
		<path d="M9.901,10.656c0-0.034,0.012-0.062,0.037-0.087c0.025-0.024,0.055-0.037,0.089-0.037c0.035,0,0.065,0.012,0.09,0.037
			c0.025,0.024,0.037,0.053,0.037,0.088c0,0.035-0.012,0.064-0.037,0.088c-0.024,0.025-0.054,0.037-0.089,0.037
			s-0.065-0.012-0.09-0.037C9.913,10.721,9.901,10.691,9.901,10.656z M10.125,11.002v0.832H9.93v-0.832H10.125z"/>
		<path d="M10.373,11.002h0.196v0.077c0.068-0.067,0.145-0.1,0.23-0.1c0.099,0,0.175,0.03,0.23,0.091
			c0.047,0.052,0.071,0.136,0.071,0.254v0.51h-0.196V11.37c0-0.082-0.011-0.139-0.035-0.17c-0.022-0.032-0.063-0.048-0.123-0.048
			c-0.065,0-0.111,0.021-0.138,0.063c-0.026,0.042-0.04,0.114-0.04,0.218v0.401h-0.196V11.002z"/>
		<path d="M11.317,10.656c0-0.034,0.012-0.062,0.037-0.087c0.025-0.024,0.055-0.037,0.089-0.037c0.035,0,0.065,0.012,0.09,0.037
			c0.025,0.024,0.037,0.053,0.037,0.088c0,0.035-0.012,0.064-0.037,0.088c-0.024,0.025-0.054,0.037-0.089,0.037
			s-0.065-0.012-0.09-0.037C11.33,10.721,11.317,10.691,11.317,10.656z M11.542,11.002v0.832h-0.195v-0.832H11.542z"/>
		<path d="M11.99,11.182v0.652h-0.195v-0.652h-0.083v-0.18h0.083v-0.305h0.195v0.305h0.152v0.18H11.99z"/>
		<path d="M12.246,10.656c0-0.034,0.012-0.062,0.037-0.087c0.025-0.024,0.055-0.037,0.089-0.037c0.035,0,0.065,0.012,0.09,0.037
			c0.025,0.024,0.037,0.053,0.037,0.088c0,0.035-0.012,0.064-0.037,0.088c-0.024,0.025-0.054,0.037-0.089,0.037
			s-0.065-0.012-0.09-0.037C12.258,10.721,12.246,10.691,12.246,10.656z M12.47,11.002v0.832h-0.195v-0.832H12.47z"/>
		<path d="M13.34,11.002h0.196v0.832H13.34v-0.087c-0.081,0.074-0.167,0.111-0.259,0.111c-0.117,0-0.213-0.042-0.29-0.125
			c-0.076-0.085-0.113-0.191-0.113-0.318c0-0.125,0.038-0.229,0.113-0.312c0.076-0.083,0.171-0.125,0.285-0.125
			c0.098,0,0.187,0.04,0.265,0.12V11.002z M12.877,11.416c0,0.08,0.022,0.145,0.065,0.195c0.045,0.051,0.101,0.076,0.168,0.076
			c0.072,0,0.131-0.024,0.175-0.073c0.044-0.051,0.067-0.115,0.067-0.193c0-0.078-0.022-0.143-0.067-0.193
			c-0.044-0.049-0.103-0.074-0.173-0.074c-0.067,0-0.124,0.025-0.168,0.075C12.899,11.278,12.877,11.341,12.877,11.416z"/>
		<path d="M13.983,11.182v0.652h-0.195v-0.652h-0.083v-0.18h0.083v-0.305h0.195v0.305h0.152v0.18H13.983z"/>
		<path d="M14.239,10.656c0-0.034,0.012-0.062,0.037-0.087c0.025-0.024,0.055-0.037,0.089-0.037c0.035,0,0.065,0.012,0.09,0.037
			c0.025,0.024,0.037,0.053,0.037,0.088c0,0.035-0.012,0.064-0.037,0.088c-0.024,0.025-0.054,0.037-0.089,0.037
			s-0.065-0.012-0.09-0.037C14.251,10.721,14.239,10.691,14.239,10.656z M14.463,11.002v0.832h-0.195v-0.832H14.463z"/>
		<path d="M14.815,11.002l0.219,0.467l0.218-0.467h0.219l-0.439,0.889l-0.435-0.889H14.815z"/>
		<path d="M16.342,11.463h-0.605c0.005,0.068,0.028,0.123,0.068,0.163c0.04,0.04,0.091,0.06,0.153,0.06
			c0.049,0,0.089-0.011,0.121-0.034c0.031-0.022,0.067-0.065,0.106-0.126l0.165,0.09c-0.025,0.042-0.052,0.079-0.081,0.11
			c-0.028,0.03-0.059,0.055-0.091,0.075c-0.032,0.02-0.067,0.034-0.105,0.043s-0.078,0.014-0.122,0.014
			c-0.126,0-0.228-0.04-0.304-0.12c-0.076-0.08-0.114-0.187-0.114-0.319c0-0.132,0.037-0.238,0.111-0.319
			c0.075-0.081,0.173-0.121,0.296-0.121c0.125,0,0.223,0.039,0.295,0.117c0.071,0.077,0.107,0.185,0.107,0.322L16.342,11.463z
			 M16.142,11.306c-0.027-0.103-0.093-0.154-0.197-0.154c-0.023,0-0.046,0.003-0.066,0.011c-0.021,0.007-0.04,0.018-0.057,0.031
			s-0.032,0.029-0.043,0.048c-0.012,0.019-0.021,0.04-0.028,0.064H16.142z"/>
		<path d="M17.075,10.656c0-0.034,0.012-0.062,0.037-0.087c0.025-0.024,0.055-0.037,0.089-0.037c0.035,0,0.065,0.012,0.09,0.037
			c0.025,0.024,0.037,0.053,0.037,0.088c0,0.035-0.012,0.064-0.037,0.088c-0.024,0.025-0.054,0.037-0.089,0.037
			s-0.065-0.012-0.09-0.037C17.087,10.721,17.075,10.691,17.075,10.656z M17.299,11.002v0.832h-0.195v-0.832H17.299z"/>
		<path d="M17.546,11.002h0.196v0.077c0.068-0.067,0.145-0.1,0.23-0.1c0.099,0,0.175,0.03,0.23,0.091
			c0.047,0.052,0.071,0.136,0.071,0.254v0.51h-0.196V11.37c0-0.082-0.011-0.139-0.035-0.17c-0.022-0.032-0.063-0.048-0.123-0.048
			c-0.065,0-0.111,0.021-0.138,0.063c-0.026,0.042-0.04,0.114-0.04,0.218v0.401h-0.196V11.002z"/>
		<path d="M19.692,11.002h0.196v0.832h-0.196v-0.087c-0.081,0.074-0.167,0.111-0.259,0.111c-0.117,0-0.213-0.042-0.29-0.125
			c-0.076-0.085-0.113-0.191-0.113-0.318c0-0.125,0.038-0.229,0.113-0.312c0.076-0.083,0.171-0.125,0.285-0.125
			c0.098,0,0.187,0.04,0.265,0.12V11.002z M19.229,11.416c0,0.08,0.022,0.145,0.065,0.195c0.045,0.051,0.101,0.076,0.168,0.076
			c0.072,0,0.131-0.024,0.175-0.073c0.044-0.051,0.067-0.115,0.067-0.193c0-0.078-0.022-0.143-0.067-0.193
			c-0.044-0.049-0.103-0.074-0.173-0.074c-0.067,0-0.124,0.025-0.168,0.075C19.251,11.278,19.229,11.341,19.229,11.416z"/>
		<path d="M20.134,11.002h0.195v0.074c0.036-0.037,0.068-0.062,0.095-0.076c0.028-0.014,0.062-0.021,0.101-0.021
			c0.052,0,0.105,0.017,0.162,0.049l-0.089,0.176c-0.037-0.026-0.073-0.04-0.108-0.04c-0.106,0-0.16,0.079-0.16,0.238v0.431h-0.195
			V11.002z"/>
		<path d="M21.063,11.182v0.652h-0.195v-0.652h-0.083v-0.18h0.083v-0.305h0.195v0.305h0.152v0.18H21.063z"/>
		<path d="M21.469,11.587l0.173,0.067l-0.247,0.488l-0.132-0.054L21.469,11.587z"/>
		<path d="M22.936,11.144l-0.162,0.084c-0.025-0.051-0.057-0.076-0.094-0.076c-0.018,0-0.033,0.006-0.046,0.018
			c-0.013,0.012-0.02,0.026-0.02,0.045c0,0.032,0.038,0.063,0.113,0.095c0.104,0.043,0.173,0.084,0.209,0.121
			c0.036,0.037,0.054,0.086,0.054,0.149c0,0.081-0.03,0.147-0.09,0.202c-0.059,0.051-0.129,0.077-0.212,0.077
			c-0.142,0-0.242-0.068-0.301-0.204l0.167-0.076c0.023,0.04,0.041,0.065,0.053,0.076c0.024,0.021,0.052,0.032,0.085,0.032
			c0.066,0,0.099-0.029,0.099-0.089c0-0.034-0.025-0.066-0.076-0.095c-0.02-0.01-0.04-0.02-0.059-0.028
			c-0.02-0.009-0.04-0.019-0.06-0.028c-0.057-0.027-0.096-0.055-0.12-0.082c-0.029-0.035-0.044-0.079-0.044-0.134
			c0-0.073,0.025-0.132,0.075-0.18c0.052-0.047,0.114-0.071,0.188-0.071C22.803,10.979,22.883,11.034,22.936,11.144z"/>
		<path d="M23.823,11.038v0.255c-0.044-0.054-0.084-0.09-0.12-0.11c-0.035-0.021-0.076-0.031-0.123-0.031
			c-0.073,0-0.134,0.025-0.183,0.076c-0.048,0.051-0.073,0.114-0.073,0.19c0,0.078,0.023,0.142,0.07,0.192
			c0.047,0.05,0.108,0.075,0.181,0.075c0.047,0,0.088-0.01,0.124-0.03c0.035-0.019,0.076-0.057,0.123-0.113v0.254
			c-0.079,0.041-0.159,0.061-0.238,0.061c-0.131,0-0.24-0.042-0.328-0.125c-0.088-0.084-0.132-0.188-0.132-0.312
			s0.044-0.229,0.133-0.314s0.198-0.128,0.328-0.128C23.67,10.979,23.749,10.999,23.823,11.038z"/>
		<path d="M23.983,10.656c0-0.034,0.012-0.062,0.037-0.087c0.025-0.024,0.055-0.037,0.089-0.037c0.035,0,0.065,0.012,0.09,0.037
			c0.025,0.024,0.037,0.053,0.037,0.088c0,0.035-0.012,0.064-0.037,0.088c-0.024,0.025-0.054,0.037-0.089,0.037
			s-0.065-0.012-0.09-0.037C23.995,10.721,23.983,10.691,23.983,10.656z M24.208,11.002v0.832h-0.195v-0.832H24.208z"/>
		<path d="M25.224,11.463h-0.605c0.005,0.068,0.028,0.123,0.068,0.163c0.04,0.04,0.091,0.06,0.153,0.06
			c0.049,0,0.089-0.011,0.121-0.034c0.031-0.022,0.067-0.065,0.106-0.126l0.165,0.09c-0.025,0.042-0.052,0.079-0.081,0.11
			c-0.028,0.03-0.059,0.055-0.091,0.075c-0.032,0.02-0.067,0.034-0.105,0.043s-0.078,0.014-0.122,0.014
			c-0.126,0-0.228-0.04-0.304-0.12c-0.076-0.08-0.114-0.187-0.114-0.319c0-0.132,0.037-0.238,0.111-0.319
			c0.075-0.081,0.173-0.121,0.296-0.121c0.125,0,0.223,0.039,0.295,0.117c0.071,0.077,0.107,0.185,0.107,0.322L25.224,11.463z
			 M25.024,11.306c-0.027-0.103-0.093-0.154-0.197-0.154c-0.023,0-0.046,0.003-0.066,0.011c-0.021,0.007-0.04,0.018-0.057,0.031
			s-0.032,0.029-0.043,0.048c-0.012,0.019-0.021,0.04-0.028,0.064H25.024z"/>
		<path d="M25.438,11.002h0.196v0.077c0.068-0.067,0.145-0.1,0.23-0.1c0.099,0,0.175,0.03,0.23,0.091
			c0.047,0.052,0.071,0.136,0.071,0.254v0.51h-0.196V11.37c0-0.082-0.011-0.139-0.035-0.17c-0.022-0.032-0.063-0.048-0.123-0.048
			c-0.065,0-0.111,0.021-0.138,0.063c-0.026,0.042-0.04,0.114-0.04,0.218v0.401h-0.196V11.002z"/>
		<path d="M27.069,11.038v0.255c-0.044-0.054-0.084-0.09-0.12-0.11c-0.035-0.021-0.076-0.031-0.123-0.031
			c-0.073,0-0.134,0.025-0.183,0.076c-0.048,0.051-0.073,0.114-0.073,0.19c0,0.078,0.023,0.142,0.07,0.192
			c0.047,0.05,0.108,0.075,0.181,0.075c0.047,0,0.088-0.01,0.124-0.03c0.035-0.019,0.076-0.057,0.123-0.113v0.254
			c-0.079,0.041-0.159,0.061-0.238,0.061c-0.131,0-0.24-0.042-0.328-0.125c-0.088-0.084-0.132-0.188-0.132-0.312
			s0.044-0.229,0.133-0.314s0.198-0.128,0.328-0.128C26.917,10.979,26.995,10.999,27.069,11.038z"/>
		<path d="M28.028,11.463h-0.605c0.005,0.068,0.028,0.123,0.068,0.163c0.04,0.04,0.091,0.06,0.153,0.06
			c0.049,0,0.089-0.011,0.121-0.034c0.031-0.022,0.067-0.065,0.106-0.126l0.165,0.09c-0.025,0.042-0.052,0.079-0.081,0.11
			c-0.028,0.03-0.059,0.055-0.091,0.075c-0.032,0.02-0.067,0.034-0.105,0.043s-0.078,0.014-0.122,0.014
			c-0.126,0-0.228-0.04-0.304-0.12c-0.076-0.08-0.114-0.187-0.114-0.319c0-0.132,0.037-0.238,0.111-0.319
			c0.075-0.081,0.173-0.121,0.296-0.121c0.125,0,0.223,0.039,0.295,0.117c0.071,0.077,0.107,0.185,0.107,0.322L28.028,11.463z
			 M27.828,11.306c-0.027-0.103-0.093-0.154-0.197-0.154c-0.023,0-0.046,0.003-0.066,0.011c-0.021,0.007-0.04,0.018-0.057,0.031
			s-0.032,0.029-0.043,0.048c-0.012,0.019-0.021,0.04-0.028,0.064H27.828z"/>
		<path d="M29.413,11.002h0.196v0.832h-0.196v-0.087c-0.081,0.074-0.167,0.111-0.259,0.111c-0.117,0-0.213-0.042-0.29-0.125
			c-0.076-0.085-0.113-0.191-0.113-0.318c0-0.125,0.038-0.229,0.113-0.312c0.076-0.083,0.171-0.125,0.285-0.125
			c0.098,0,0.187,0.04,0.265,0.12V11.002z M28.949,11.416c0,0.08,0.022,0.145,0.065,0.195c0.045,0.051,0.101,0.076,0.168,0.076
			c0.072,0,0.131-0.024,0.175-0.073c0.044-0.051,0.067-0.115,0.067-0.193c0-0.078-0.022-0.143-0.067-0.193
			c-0.044-0.049-0.103-0.074-0.173-0.074c-0.067,0-0.124,0.025-0.168,0.075C28.972,11.278,28.949,11.341,28.949,11.416z"/>
		<path d="M29.855,11.002h0.196v0.077c0.068-0.067,0.145-0.1,0.23-0.1c0.099,0,0.175,0.03,0.23,0.091
			c0.047,0.052,0.071,0.136,0.071,0.254v0.51h-0.196V11.37c0-0.082-0.011-0.139-0.035-0.17c-0.022-0.032-0.063-0.048-0.123-0.048
			c-0.065,0-0.111,0.021-0.138,0.063c-0.026,0.042-0.04,0.114-0.04,0.218v0.401h-0.196V11.002z"/>
		<path d="M31.452,10.392h0.196v1.442h-0.196v-0.087c-0.077,0.074-0.164,0.111-0.261,0.111c-0.116,0-0.211-0.042-0.288-0.125
			c-0.076-0.085-0.113-0.191-0.113-0.318c0-0.124,0.038-0.228,0.113-0.311c0.075-0.083,0.17-0.125,0.284-0.125
			c0.099,0,0.188,0.04,0.266,0.12V10.392z M30.989,11.416c0,0.08,0.022,0.145,0.065,0.195c0.045,0.051,0.101,0.076,0.168,0.076
			c0.072,0,0.131-0.024,0.175-0.073c0.044-0.051,0.067-0.115,0.067-0.193c0-0.078-0.022-0.143-0.067-0.193
			c-0.044-0.049-0.103-0.074-0.173-0.074c-0.067,0-0.124,0.025-0.168,0.075C31.011,11.278,30.989,11.341,30.989,11.416z"/>
		<path d="M32.644,11.182v0.652h-0.195v-0.652h-0.083v-0.18h0.083v-0.305h0.195v0.305h0.152v0.18H32.644z"/>
		<path d="M33.713,11.463h-0.605c0.005,0.068,0.028,0.123,0.068,0.163c0.04,0.04,0.091,0.06,0.153,0.06
			c0.049,0,0.089-0.011,0.121-0.034c0.031-0.022,0.067-0.065,0.106-0.126l0.165,0.09c-0.025,0.042-0.052,0.079-0.081,0.11
			c-0.028,0.03-0.059,0.055-0.091,0.075c-0.032,0.02-0.067,0.034-0.105,0.043s-0.078,0.014-0.122,0.014
			c-0.126,0-0.228-0.04-0.304-0.12c-0.076-0.08-0.114-0.187-0.114-0.319c0-0.132,0.037-0.238,0.111-0.319
			c0.075-0.081,0.173-0.121,0.296-0.121c0.125,0,0.223,0.039,0.295,0.117c0.071,0.077,0.107,0.185,0.107,0.322L33.713,11.463z
			 M33.513,11.306c-0.027-0.103-0.093-0.154-0.197-0.154c-0.023,0-0.046,0.003-0.066,0.011c-0.021,0.007-0.04,0.018-0.057,0.031
			s-0.032,0.029-0.043,0.048c-0.012,0.019-0.021,0.04-0.028,0.064H33.513z"/>
		<path d="M34.584,11.038v0.255c-0.044-0.054-0.084-0.09-0.12-0.11c-0.035-0.021-0.076-0.031-0.123-0.031
			c-0.073,0-0.134,0.025-0.183,0.076c-0.048,0.051-0.073,0.114-0.073,0.19c0,0.078,0.023,0.142,0.07,0.192
			c0.047,0.05,0.108,0.075,0.181,0.075c0.047,0,0.088-0.01,0.124-0.03c0.035-0.019,0.076-0.057,0.123-0.113v0.254
			c-0.079,0.041-0.159,0.061-0.238,0.061c-0.131,0-0.24-0.042-0.328-0.125c-0.088-0.084-0.132-0.188-0.132-0.312
			s0.044-0.229,0.133-0.314s0.198-0.128,0.328-0.128C34.432,10.979,34.51,10.999,34.584,11.038z"/>
		<path d="M34.819,10.392h0.195v0.68c0.069-0.062,0.146-0.092,0.23-0.092c0.095,0,0.171,0.03,0.229,0.091
			c0.048,0.053,0.073,0.138,0.073,0.254v0.51h-0.195v-0.492c0-0.066-0.012-0.115-0.036-0.145c-0.024-0.03-0.063-0.045-0.116-0.045
			c-0.068,0-0.116,0.021-0.144,0.062c-0.027,0.042-0.041,0.114-0.041,0.217v0.402h-0.195V10.392z"/>
		<path d="M35.793,11.002h0.196v0.077c0.068-0.067,0.145-0.1,0.23-0.1c0.099,0,0.175,0.03,0.23,0.091
			c0.047,0.052,0.071,0.136,0.071,0.254v0.51h-0.196V11.37c0-0.082-0.011-0.139-0.035-0.17c-0.022-0.032-0.063-0.048-0.123-0.048
			c-0.065,0-0.111,0.021-0.138,0.063c-0.026,0.042-0.04,0.114-0.04,0.218v0.401h-0.196V11.002z"/>
		<path d="M36.728,11.412c0-0.12,0.043-0.222,0.131-0.307s0.194-0.126,0.319-0.126c0.126,0,0.233,0.042,0.321,0.127
			c0.086,0.084,0.13,0.189,0.13,0.312c0,0.125-0.043,0.229-0.131,0.313c-0.088,0.083-0.196,0.125-0.324,0.125
			c-0.126,0-0.232-0.042-0.318-0.128C36.771,11.646,36.728,11.54,36.728,11.412z M36.927,11.416c0,0.083,0.022,0.149,0.068,0.197
			c0.046,0.049,0.107,0.073,0.183,0.073s0.137-0.024,0.183-0.072c0.046-0.048,0.069-0.113,0.069-0.194
			c0-0.081-0.023-0.146-0.069-0.194c-0.046-0.049-0.107-0.074-0.183-0.074c-0.075,0-0.135,0.024-0.182,0.074
			C36.95,11.275,36.927,11.338,36.927,11.416z"/>
		<path d="M38.031,10.392v1.442h-0.195v-1.442H38.031z"/>
		<path d="M38.238,11.412c0-0.12,0.043-0.222,0.131-0.307s0.194-0.126,0.319-0.126c0.126,0,0.233,0.042,0.321,0.127
			c0.086,0.084,0.13,0.189,0.13,0.312c0,0.125-0.043,0.229-0.131,0.313c-0.088,0.083-0.196,0.125-0.324,0.125
			c-0.126,0-0.232-0.042-0.318-0.128C38.281,11.646,38.238,11.54,38.238,11.412z M38.438,11.416c0,0.083,0.022,0.149,0.068,0.197
			c0.046,0.049,0.107,0.073,0.183,0.073s0.137-0.024,0.183-0.072c0.046-0.048,0.069-0.113,0.069-0.194
			c0-0.081-0.023-0.146-0.069-0.194c-0.046-0.049-0.107-0.074-0.183-0.074c-0.075,0-0.135,0.024-0.182,0.074
			C38.46,11.275,38.438,11.338,38.438,11.416z"/>
		<path d="M40.163,11.814c0,0.039-0.001,0.074-0.004,0.104c-0.003,0.03-0.006,0.056-0.011,0.079
			c-0.014,0.062-0.042,0.117-0.082,0.162c-0.077,0.086-0.182,0.13-0.315,0.13c-0.113,0-0.206-0.03-0.279-0.09
			c-0.075-0.062-0.118-0.147-0.13-0.256h0.196c0.008,0.041,0.02,0.073,0.038,0.095c0.041,0.052,0.099,0.078,0.177,0.078
			c0.143,0,0.214-0.086,0.214-0.258v-0.116c-0.078,0.078-0.167,0.117-0.268,0.117c-0.115,0-0.209-0.041-0.283-0.123
			c-0.074-0.083-0.111-0.187-0.111-0.312c0-0.122,0.034-0.225,0.103-0.31c0.074-0.09,0.172-0.135,0.293-0.135
			c0.106,0,0.195,0.039,0.266,0.117v-0.094h0.195V11.814z M39.976,11.42c0-0.081-0.022-0.146-0.066-0.194
			c-0.044-0.049-0.102-0.074-0.171-0.074c-0.074,0-0.132,0.027-0.175,0.081c-0.039,0.048-0.058,0.111-0.058,0.188
			c0,0.076,0.02,0.138,0.058,0.186c0.042,0.053,0.101,0.079,0.175,0.079s0.134-0.026,0.177-0.08
			C39.956,11.558,39.976,11.496,39.976,11.42z"/>
		<path d="M40.676,11.679l-0.38-0.677h0.226l0.259,0.479l0.241-0.479h0.221l-0.673,1.285h-0.223L40.676,11.679z"/>
	</g>
	<rect x="14.417" y="28.102" width="5.852" height="13.987"/>
	<rect x="27.374" y="28.338" width="5.852" height="14.088"/>
	<rect x="39.292" y="46.129" width="5.852" height="13.519"/>
	<rect x="28.797" y="59.483" width="5.852" height="9.852"/>
	<rect x="46.636" y="46.129" width="5.568" height="13.519"/>
	<rect x="53.951" y="46.129" width="5.567" height="13.519"/>
	<rect x="61.266" y="46.129" width="5.568" height="13.519"/>
	<rect x="68.611" y="46.129" width="5.568" height="13.519"/>
	<rect x="75.89" y="46.129" width="5.567" height="13.519"/>
	<rect x="83.11" y="46.129" width="5.567" height="13.519"/>
	<rect x="83.226" y="74.295" width="5.568" height="13.394"/>
	<rect x="75.89" y="74.295" width="5.567" height="13.394"/>
	<rect x="68.611" y="74.295" width="5.568" height="13.394"/>
	<rect x="61.266" y="74.295" width="5.568" height="13.394"/>
	<rect x="53.951" y="74.295" width="5.567" height="13.394"/>
	<rect x="46.636" y="74.295" width="5.568" height="13.394"/>
	<rect x="39.264" y="74.295" width="5.568" height="13.394"/>
	<rect x="53.809" y="4.218" width="5.852" height="12.744"/>
	<rect x="11.54" y="64.37" width="12.57" height="5.762"/>
	<rect x="86.03" y="19.286" width="9.016" height="5.762"/>
	<rect x="40.159" y="19.286" width="9.016" height="5.762"/>
	<rect x="54.655" y="123.97" width="11.3" height="10.512"/>
	<rect x="80.107" y="124.662" width="44.952" height="9.252"/>
	<rect x="15.378" y="49.251" width="29.327" height="5.762"/>
	<rect x="26.304" y="92.438" stroke="#000000" stroke-miterlimit="10" width="6.5" height="5.762"/>
	<rect x="53.479" y="36.771" width="7.013" height="5.762"/>
	<rect x="63.656" y="36.771" width="8.366" height="5.762"/>
	<rect x="63.656" y="15.458" width="9.721" height="9.762"/>
	<rect x="100.235" y="19.458" width="8.367" height="5.762"/>
	<rect x="100.235" y="36.771" width="8.367" height="5.762"/>
	<rect x="45.761" y="115.537" width="5.851" height="12.377"/>
	<rect x="55.119" y="102.27" width="9.944" height="6.665"/>
	<rect x="55.207" y="112.579" width="10.959" height="6.832"/>
	<rect x="88.383" y="112.662" width="15.783" height="6.665"/>
	<rect x="88.383" y="102.27" width="15.783" height="6.665"/>
	<rect x="99.445" y="92.271" width="9.945" height="6.665"/>
	<rect x="69.279" y="115.537" width="5.852" height="12.377"/>
	<rect x="75.747" y="4.218" width="5.852" height="11.65"/>
	<rect x="89.06" y="1.849" fill="#FFFFFF" width="2.682" height="5.744"/>
	<path fill="#FFFFFF" d="M43.275,80.305c0,0.668-0.549,1.209-1.228,1.209l0,0c-0.678,0-1.229-0.541-1.229-1.209l0,0
		c0-0.668,0.551-1.21,1.229-1.21l0,0C42.726,79.095,43.275,79.637,43.275,80.305L43.275,80.305z"/>
	<rect x="101.034" y="75.408" width="6.768" height="9.792"/>
	<g>
		<path fill="#FFFFFF" d="M105.923,80.193v0.779h-3.011v-0.779H105.923z"/>
	</g>
	<g>
		<path fill="#FFFFFF" d="M31.059,95.207v0.779h-3.011v-0.779H31.059z"/>
	</g>
	<g>
		<path fill="#FFFFFF" d="M62.191,131.49v0.779H59.18v-0.779H62.191z"/>
	</g>
	<rect x="39.148" y="36.882" width="6.5" height="5.762"/>
	<text transform="matrix(-1.0156 0 0 1 44.27 43.2847)" fill="#FFFFFF" font-family="'MyriadPro-Regular'" font-size="12">-</text>
	<g>
		<path fill="#FFFFFF" d="M105.923,95.492v0.779h-3.011v-0.779H105.923z"/>
	</g>
	<g>
		<path fill="#FFFFFF" d="M92.043,22.055v0.779h-3.011v-0.779H92.043z"/>
	</g>
	<text transform="matrix(-1.0156 0 0 1 46.5376 25.689)" fill="#FFFFFF" font-family="'MyriadPro-Regular'" font-size="12">-</text>
	<text transform="matrix(-1.0156 0 0 1 13.0684 86.939)" fill="#FFFFFF" font-family="'MyriadPro-Regular'" font-size="12">-</text>
	<g>
		<path d="M86.214,6.029V2.135h3.667v1.147h-2.64v1.656h2.64v3.894h-3.667V7.685h2.704V6.029H86.214z"/>
		<path d="M92.963,8.832h-2.339V2.135h3.667v6.696h-0.472l0.45,1.119h-0.829L92.963,8.832z M93.328,7.614V3.282h-1.677v4.402h0.822
			l-0.346-0.816h0.9L93.328,7.614z"/>
		<path d="M97.739,2.135h0.963v6.696h-3.667V2.135h1.026v5.549h1.677V2.135z"/>
		<path d="M102.149,6.029h-1.677v2.803h-1.026V2.135h3.667v6.696h-0.963V6.029z M100.472,3.282v1.656h1.677V3.282H100.472z"/>
		<path d="M103.856,8.832V2.135h3.667v3.894h-1.253l1.253,2.803h-0.963l-1.317-2.803h-0.36v2.803H103.856z M104.883,3.282v1.656
			h1.677V3.282H104.883z"/>
		<path d="M109.293,3.282v1.656h2.64v1.091h-2.64v1.656h2.64v1.147h-3.667V2.135h3.667v1.147H109.293z"/>
		<path d="M112.678,6.029V2.135h3.667v1.147h-2.64v1.656h2.64v3.894h-3.667V7.685h2.704V6.029H112.678z"/>
		<path d="M119.409,5.483v3.348h-1.026V5.483l-1.294-3.348h1.026l0.829,2.126l0.848-2.126h0.963L119.409,5.483z"/>
		<path d="M122.525,8.832h-1.026V2.135h1.026l1.677,3.754V2.135h0.963v6.696h-0.963l-1.677-3.866V8.832z"/>
		<path d="M127.296,3.282h-1.387V2.135h3.667v1.147h-1.253v5.549h-1.026V3.282z"/>
		<path d="M131.347,8.832h-1.026V2.135h1.026v2.803h1.677V2.135h0.963v6.696h-0.963V6.029h-1.677V8.832z"/>
	</g>
	<g>
		<path d="M4.244,15.336c0.091-0.204,0.22-0.3,0.373-0.3c0.119,0,0.253,0.06,0.401,0.168l0.707,0.521
			c0.043,0.03,0.081,0.048,0.11,0.048c0.043,0,0.067-0.03,0.091-0.072l0.301-0.666l0.454,0.335l-0.334,0.744
			c-0.09,0.204-0.22,0.3-0.373,0.3c-0.119,0-0.253-0.06-0.401-0.167l-0.707-0.522c-0.043-0.03-0.081-0.048-0.11-0.048
			c-0.043,0-0.067,0.03-0.091,0.072l-0.301,0.666L3.91,16.08L4.244,15.336z"/>
		<path d="M7.209,16.896h1.839c0.119,0,0.167-0.06,0.167-0.15v-0.6c0-0.09-0.048-0.15-0.167-0.15H7.926
			c-0.454,0-0.716-0.21-0.716-0.66v-0.21c0-0.45,0.263-0.66,0.716-0.66h1.767v0.45H8.045c-0.12,0-0.167,0.06-0.167,0.15v0.33
			c0,0.09,0.048,0.15,0.167,0.15h1.122c0.454,0,0.716,0.209,0.716,0.66v0.479c0,0.45-0.263,0.66-0.716,0.66H7.209V16.896z"/>
		<path d="M10.461,15.126c0-0.45,0.263-0.66,0.716-0.66h1.958v4.138h-0.668v-1.259h-1.29c-0.454,0-0.716-0.21-0.716-0.66V15.126z
			 M11.297,16.896h1.17v-1.979h-1.17c-0.119,0-0.167,0.06-0.167,0.15v1.679C11.13,16.835,11.178,16.896,11.297,16.896z"/>
		<path d="M13.762,14.467h0.668v2.279c0,0.09,0.048,0.15,0.167,0.15h1.17v-2.429h0.668v2.878h-1.958c-0.454,0-0.716-0.21-0.716-0.66
			V14.467z"/>
		<path d="M17.014,16.206c0-0.45,0.263-0.66,0.716-0.66h1.29v-0.48c0-0.09-0.048-0.15-0.167-0.15h-1.648v-0.45h1.767
			c0.454,0,0.716,0.21,0.716,0.66v2.219H17.73c-0.454,0-0.716-0.21-0.716-0.66V16.206z M17.85,16.896h1.17v-0.899h-1.17
			c-0.12,0-0.167,0.06-0.167,0.15v0.6C17.682,16.835,17.73,16.896,17.85,16.896z"/>
		<path d="M20.313,15.126c0-0.45,0.263-0.66,0.716-0.66h0.86v0.45h-0.74c-0.12,0-0.167,0.06-0.167,0.15v2.279h-0.668V15.126z"/>
		<path d="M22.37,15.126c0-0.45,0.263-0.66,0.716-0.66h1.242c0.454,0,0.716,0.21,0.716,0.66v0.87h-2.006v0.75
			c0,0.09,0.048,0.15,0.167,0.15h1.744v0.45h-1.863c-0.454,0-0.716-0.21-0.716-0.66V15.126z M24.375,15.546v-0.48
			c0-0.09-0.048-0.15-0.167-0.15h-1.003c-0.119,0-0.167,0.06-0.167,0.15v0.48H24.375z"/>
		<path d="M25.622,16.896h1.839c0.119,0,0.167-0.06,0.167-0.15v-0.6c0-0.09-0.048-0.15-0.167-0.15h-1.123
			c-0.454,0-0.716-0.21-0.716-0.66v-0.21c0-0.45,0.263-0.66,0.716-0.66h1.767v0.45h-1.647c-0.12,0-0.167,0.06-0.167,0.15v0.33
			c0,0.09,0.048,0.15,0.167,0.15h1.122c0.454,0,0.716,0.209,0.716,0.66v0.479c0,0.45-0.263,0.66-0.716,0.66h-1.958V16.896z"/>
		<path d="M28.874,15.126c0-0.45,0.263-0.66,0.716-0.66h1.242c0.454,0,0.716,0.21,0.716,0.66v1.559c0,0.45-0.263,0.66-0.716,0.66
			H29.59c-0.454,0-0.716-0.21-0.716-0.66V15.126z M29.71,16.896h1.003c0.119,0,0.167-0.06,0.167-0.15v-1.679
			c0-0.09-0.048-0.15-0.167-0.15H29.71c-0.12,0-0.167,0.06-0.167,0.15v1.679C29.542,16.835,29.59,16.896,29.71,16.896z"/>
		<path d="M32.174,13.387h0.668v3.958h-0.668V13.387z"/>
		<path d="M33.465,13.387h0.668v0.6h-0.668V13.387z M33.465,14.467h0.668v2.878h-0.668V14.467z"/>
		<path d="M34.756,15.126c0-0.45,0.263-0.66,0.716-0.66h1.29v-1.08h0.668v3.958h-1.958c-0.454,0-0.716-0.21-0.716-0.66V15.126z
			 M35.592,16.896h1.17v-1.979h-1.17c-0.119,0-0.167,0.06-0.167,0.15v1.679C35.425,16.835,35.473,16.896,35.592,16.896z"/>
		<path d="M38.343,15.336c0.091-0.204,0.22-0.3,0.373-0.3c0.119,0,0.253,0.06,0.401,0.168l0.707,0.521
			c0.043,0.03,0.081,0.048,0.11,0.048c0.043,0,0.067-0.03,0.091-0.072l0.301-0.666l0.454,0.335l-0.334,0.744
			c-0.09,0.204-0.22,0.3-0.373,0.3c-0.119,0-0.253-0.06-0.401-0.167l-0.707-0.522c-0.043-0.03-0.081-0.048-0.11-0.048
			c-0.043,0-0.067,0.03-0.091,0.072l-0.301,0.666l-0.454-0.335L38.343,15.336z"/>
	</g>
	<g>
		<path fill="#FFFFFF" d="M66.362,21.716v-2.805h1.956v1.631H67.65l0.668,1.174h-0.514l-0.703-1.174H66.91v1.174H66.362z
			 M66.91,19.392v0.693h0.895v-0.693H66.91z"/>
		<path fill="#FFFFFF" d="M68.715,20.542v-1.631h0.547v1.174h0.895v-1.174h0.514v2.805h-0.514v-1.174H68.715z"/>
	</g>
	<g>
		<path fill="#FFFFFF" d="M58.186,9.424V9.93l-2.849-0.611V8.663l2.849-0.658v0.539l-2.192,0.422L58.186,9.424z"/>
		<path fill="#FFFFFF" d="M55.337,10.321h2.849v1.926h-1.657v-0.658l-1.192,0.658v-0.506l1.192-0.691V10.86h-1.192V10.321z
			 M57.697,10.86h-0.704v0.881h0.704V10.86z"/>
		<path fill="#FFFFFF" d="M55.337,13.176v-0.539h2.849v0.539H55.337z"/>
	</g>
	<g>
		<path fill="#FFFFFF" d="M73.655,119.867v0.506l-2.849-0.611v-0.656l2.849-0.658v0.539l-2.192,0.422L73.655,119.867z"/>
		<path fill="#FFFFFF" d="M70.807,120.763h2.849v1.926h-1.657v-0.658l-1.192,0.658v-0.506l1.192-0.691v-0.189h-1.192V120.763z
			 M73.167,121.302h-0.704v0.881h0.704V121.302z"/>
		<path fill="#FFFFFF" d="M71.294,125.005h-0.488v-1.926h1.656v1.42h0.704v-1.42h0.488v1.926h-1.657v-1.387h-0.704V125.005z"/>
	</g>
	<g>
		<path fill="#FFFFFF" d="M50.137,119.867v0.506l-2.849-0.611v-0.656l2.849-0.658v0.539l-2.192,0.422L50.137,119.867z"/>
		<path fill="#FFFFFF" d="M47.289,120.763h2.849v1.926H48.48v-0.658l-1.192,0.658v-0.506l1.192-0.691v-0.189h-1.192V120.763z
			 M49.649,121.302h-0.704v0.881h0.704V121.302z"/>
		<path fill="#FFFFFF" d="M47.776,125.005h-0.488v-1.926h1.656v1.42h0.704v-1.42h0.488v1.926H48.48v-1.387h-0.704V125.005z"/>
	</g>
	<g>
		<path fill="#FFFFFF" d="M80.124,8.877v0.506l-2.849-0.611V8.116l2.849-0.658v0.539l-2.192,0.422L80.124,8.877z"/>
		<path fill="#FFFFFF" d="M77.275,9.774h2.849V11.7h-1.657v-0.658L77.275,11.7v-0.506l1.192-0.691v-0.189h-1.192V9.774z
			 M79.636,10.313h-0.704v0.881h0.704V10.313z"/>
		<path fill="#FFFFFF" d="M77.275,12.629V12.09h2.849v0.539H77.275z"/>
	</g>
	<g>
		<path fill="#FFFFFF" d="M57.937,106.979v-2.805h1.956v1.631h-0.668l0.668,1.174h-0.514l-0.703-1.174h-0.192v1.174H57.937z
			 M58.484,104.654v0.693h0.895v-0.693H58.484z"/>
		<path fill="#FFFFFF" d="M60.289,104.654v-0.48h1.956v2.805h-1.956v-0.48h1.442v-0.693h-1.442v-0.457h1.442v-0.693H60.289z"/>
	</g>
	<g>
		<path fill="#FFFFFF" d="M94.12,106.979v-2.805h1.956v1.631h-0.668l0.668,1.174h-0.514l-0.703-1.174h-0.192v1.174H94.12z
			 M94.667,104.654v0.693h0.895v-0.693H94.667z"/>
		<path fill="#FFFFFF" d="M96.473,104.654v-0.48h1.956v2.805h-1.956v-0.48h1.442v-0.693h-1.442v-0.457h1.442v-0.693H96.473z"/>
	</g>
	<g>
		<path fill="#FFFFFF" d="M94.824,117.371v-2.805h1.956v1.631h-0.668l0.668,1.174h-0.514l-0.703-1.174h-0.192v1.174H94.824z
			 M95.372,115.047v0.693h0.895v-0.693H95.372z"/>
		<path fill="#FFFFFF" d="M97.724,117.371h-0.547v-2.805h0.547V117.371z"/>
	</g>
	<g>
		<path fill="#FFFFFF" d="M59.237,117.371v-2.805h1.956v1.631h-0.668l0.668,1.174H60.68l-0.703-1.174h-0.192v1.174H59.237z
			 M59.785,115.047v0.693h0.895v-0.693H59.785z"/>
		<path fill="#FFFFFF" d="M62.137,117.371H61.59v-2.805h0.547V117.371z"/>
	</g>
	<rect x="101.034" y="48.742" width="6.768" height="9.792"/>
	<g>
		<path fill="#FFFFFF" d="M102.812,54.534h1.409v0.48h-1.956V52.21h1.956v0.48h-1.409V54.534z"/>
		<path fill="#FFFFFF" d="M106.573,54.534v0.48h-1.956v-1.631h1.442V52.69h-1.442v-0.48h1.956v1.631h-1.409v0.693H106.573z"/>
	</g>
	<g>
		<path fill="#FFFFFF" d="M43.343,96.215h1.409v0.48h-1.956v-2.805h1.956v0.48h-1.409V96.215z"/>
		<path fill="#FFFFFF" d="M45.148,94.371v-0.48h1.956v2.805h-1.956v-0.48h1.442v-0.693h-1.442v-0.457h1.442v-0.693H45.148z"/>
	</g>
	<rect x="76.557" y="92.271" width="12.229" height="6.665"/>
	<text transform="matrix(1.0156 0 0 1 79.1934 97.1729)" fill="#FFFFFF" font-family="'SquareFont'" font-size="4">c4</text>
	<g>
		<path fill="#FFFFFF" d="M56.082,40.659h1.409v0.48h-1.956v-2.805h1.956v0.48h-1.409V40.659z"/>
		<path fill="#FFFFFF" d="M58.435,41.14h-0.547v-2.805h0.547V41.14z"/>
	</g>
	<g>
		<path fill="#FFFFFF" d="M43.668,51.029v0.506l-2.849-0.611v-0.656l2.849-0.658v0.539l-2.192,0.422L43.668,51.029z"/>
		<path fill="#FFFFFF" d="M41.307,52.464v1.387h-0.488v-1.926h2.849v1.926H43.18v-1.387H41.307z"/>
		<path fill="#FFFFFF" d="M41.307,54.781v1.387h-0.488v-1.926h2.849v1.926H43.18v-1.387H41.307z"/>
	</g>
	<rect x="23.027" y="80.536" width="9.777" height="5.762"/>
	<g>
		<path fill="#FFFFFF" d="M25.014,84.794h-0.547v-2.805h0.547l0.556,1.537l0.577-1.537h0.514v2.805h-0.514V83.62l-0.398,1.174
			h-0.322l-0.413-1.174V84.794z"/>
		<path fill="#FFFFFF" d="M29.013,81.989v2.805h-1.956v-2.805H29.013z M28.499,82.47h-0.895v1.844h0.895V82.47z"/>
		<path fill="#FFFFFF" d="M29.409,84.794v-2.805h1.75l0.207,0.246v2.312l-0.205,0.246H29.409z M30.852,82.47h-0.895v1.844h0.895
			V82.47z"/>
	</g>
	<rect x="9.023" y="80.536" width="9.777" height="5.762"/>
	<g>
		<path fill="#FFFFFF" d="M11.01,84.794h-0.547v-2.805h0.547l0.556,1.537l0.577-1.537h0.514v2.805h-0.514V83.62l-0.398,1.174h-0.322
			L11.01,83.62V84.794z"/>
		<path fill="#FFFFFF" d="M15.009,81.989v2.805h-1.956v-2.805H15.009z M14.495,82.47H13.6v1.844h0.895V82.47z"/>
		<path fill="#FFFFFF" d="M15.405,84.794v-2.805h1.75l0.207,0.246v2.312l-0.205,0.246H15.405z M16.848,82.47h-0.895v1.844h0.895
			V82.47z"/>
	</g>
	<g>
		<path fill="#FFFFFF" d="M30.325,61.552v-0.539h2.849v0.539l-1.562,0.547l1.562,0.568v0.506h-2.849v-0.506h1.192l-1.192-0.393
			v-0.316l1.192-0.406H30.325z"/>
		<path fill="#FFFFFF" d="M33.174,65.49h-2.849v-1.926h2.849V65.49z M32.686,64.984v-0.881h-1.873v0.881H32.686z"/>
		<path fill="#FFFFFF" d="M30.325,65.88h2.849v1.723l-0.25,0.203h-2.349l-0.25-0.201V65.88z M32.686,67.3v-0.881h-1.873V67.3H32.686
			z"/>
	</g>
	<g>
		<path fill="#FFFFFF" d="M86.268,78.574v1.064h-1.656v-1.926h2.849v1.926h-0.488v-1.387H85.1v0.881h0.704v-0.559H86.268z"/>
		<path fill="#FFFFFF" d="M84.612,80.568v-0.539h2.849v0.539l-1.597,0.881h1.597v0.506h-2.849v-0.506l1.645-0.881H84.612z"/>
		<path fill="#FFFFFF" d="M84.612,82.345h2.849v1.723l-0.25,0.203h-2.349l-0.25-0.201V82.345z M86.972,83.765v-0.881H85.1v0.881
			H86.972z"/>
	</g>
	<text transform="matrix(1.0156 0 0 1 15.4722 68.6279)" fill="#FFFFFF" font-family="'SquareFont'" font-size="4">VC</text>
	<g>
		<path fill="#FFFFFF" d="M17.137,33.029h-0.503v-0.457h0.503v-0.486h0.464v0.486h0.44v0.457h-0.44v0.443h-0.464V33.029z"/>
		<path fill="#FFFFFF" d="M16.433,35.283h0.704v-1.42h1.657v1.926h-2.849v-1.926h0.488V35.283z M18.306,34.402h-0.704v0.881h0.704
			V34.402z"/>
		<path fill="#FFFFFF" d="M18.794,37.599v0.506l-2.849-0.611v-0.656l2.849-0.658v0.539l-2.192,0.422L18.794,37.599z"/>
	</g>
	<g>
		<path fill="#FFFFFF" d="M30.558,32.677v1.064h-1.656v-1.926h2.849v1.926h-0.488v-1.387H29.39v0.881h0.704v-0.559H30.558z"/>
		<path fill="#FFFFFF" d="M28.902,34.671v-0.539h2.849v0.539l-1.597,0.881h1.597v0.506h-2.849v-0.506l1.645-0.881H28.902z"/>
		<path fill="#FFFFFF" d="M28.902,36.449h2.849v1.723l-0.25,0.203h-2.349l-0.25-0.201V36.449z M31.262,37.869v-0.881H29.39v0.881
			H31.262z"/>
	</g>
	<g>
		<path fill="#FFFFFF" d="M102.265,23.716v-2.805h1.956v1.631h-0.668l0.668,1.174h-0.514l-0.703-1.174h-0.192v1.174H102.265z
			 M102.812,21.392v0.693h0.895v-0.693H102.812z"/>
		<path fill="#FFFFFF" d="M104.617,22.542v-1.631h0.547v1.174h0.895v-1.174h0.514v2.805h-0.514v-1.174H104.617z"/>
	</g>
	<rect x="113.937" y="102.367" width="9.944" height="7.381"/>
	<g>
		<path fill="#FFFFFF" d="M117.535,104.631v2.805h-1.956v-2.805H117.535z M117.021,105.111h-0.895v1.844h0.895V105.111z"/>
		<path fill="#FFFFFF" d="M119.374,104.631h0.514v2.805h-1.956v-2.805h0.547v2.324h0.895V104.631z"/>
		<path fill="#FFFFFF" d="M121.023,105.111h-0.74v-0.48h1.956v0.48h-0.668v2.324h-0.548V105.111z"/>
	</g>
	<g>
		<path fill="#FFFFFF" d="M102.265,41.029v-2.805h1.956v1.631h-0.668l0.668,1.174h-0.514l-0.703-1.174h-0.192v1.174H102.265z
			 M102.812,38.705v0.693h0.895v-0.693H102.812z"/>
		<path fill="#FFFFFF" d="M106.573,40.549v0.48h-1.956v-1.631h1.442v-0.693h-1.442v-0.48h1.956v1.631h-1.409v0.693H106.573z"/>
	</g>
	<g>
		<path fill="#FFFFFF" d="M65.685,41.029v-2.805h1.956v1.631h-0.668l0.668,1.174h-0.514l-0.703-1.174h-0.192v1.174H65.685z
			 M66.232,38.705v0.693h0.895v-0.693H66.232z"/>
		<path fill="#FFFFFF" d="M69.994,40.549v0.48h-1.956v-1.631h1.442v-0.693h-1.442v-0.48h1.956v1.631h-1.409v0.693H69.994z"/>
	</g>
	<g>
		<rect x="55.816" y="68.065" fill-rule="evenodd" clip-rule="evenodd" width="16.475" height="1.83"/>
		<rect x="70.466" y="68.065" fill-rule="evenodd" clip-rule="evenodd" width="1.858" height="7.347"/>
		<rect x="55.805" y="68.065" fill-rule="evenodd" clip-rule="evenodd" width="1.859" height="7.347"/>
	</g>
	<g>
		<rect x="63.201" y="63.208" fill-rule="evenodd" clip-rule="evenodd" width="16.476" height="1.83"/>
		<rect x="63.169" y="57.69" fill-rule="evenodd" clip-rule="evenodd" width="1.858" height="7.348"/>
		<rect x="77.829" y="57.69" fill-rule="evenodd" clip-rule="evenodd" width="1.859" height="7.348"/>
	</g>
	<rect x="123.945" y="121.681" fill-rule="evenodd" clip-rule="evenodd" width="10.111" height="12.801"/>
	<rect x="125.445" y="125.614" stroke="#FFFFFF" stroke-miterlimit="10" width="7.194" height="7.22"/>
	
		<text transform="matrix(-0.9486 0 0 1 134.0869 137.4614)" stroke="#000000" stroke-miterlimit="10" font-family="'SquareFont'" font-size="23.9301">+</text>
	<g>
		<path d="M77.784,67.392v-1.631h0.547v1.174h0.895v-1.174h0.514v2.805h-0.514v-1.174H77.784z"/>
		<path d="M82.092,65.761v2.805h-1.956v-2.805H82.092z M81.579,66.242h-0.895v1.844h0.895V66.242z"/>
		<path d="M83.931,68.085v-0.693h-1.442v-1.631h1.956v2.805h-1.956v-0.48H83.931z M83.036,66.242v0.693h0.895v-0.693H83.036z"/>
		<path d="M84.841,66.242v-0.48h1.956v2.805h-1.956v-0.48h1.442v-0.693h-1.442v-0.457h1.442v-0.693H84.841z"/>
	</g>
	<rect x="44.705" y="52.132" width="2.675" height="2.881"/>
	<g>
		<rect x="8.128" y="102.676" width="28.354" height="31.806"/>
		<path fill-rule="evenodd" clip-rule="evenodd" fill="#FFFFFF" d="M18.172,126.081c0,0-0.36-0.187-0.512-0.304
			c-0.353-0.272-0.643-0.198-0.981,0.055c-0.643,0.478-1.32,0.908-1.974,1.371c-0.209,0.148-0.358,0.134-0.536-0.046
			c-0.667-0.677-1.339-1.348-2.019-2.012c-0.193-0.188-0.2-0.349-0.045-0.566c0.497-0.7,0.972-1.416,1.469-2.115
			c0.175-0.246,0.222-0.469,0.095-0.76c-0.284-0.649-0.542-1.312-0.792-1.976c-0.093-0.247-0.252-0.355-0.501-0.398
			c-0.868-0.152-1.733-0.326-2.602-0.472c-0.29-0.048-0.408-0.167-0.403-0.472c0.016-0.927,0.014-1.855,0.001-2.782
			c-0.004-0.283,0.094-0.408,0.376-0.457c0.891-0.152,1.778-0.337,2.669-0.488c0.278-0.047,0.449-0.156,0.556-0.426
			c0.244-0.618,0.505-1.229,0.783-1.831c0.122-0.263,0.093-0.47-0.067-0.698c-0.521-0.74-1.019-1.495-1.548-2.227
			c-0.195-0.271-0.168-0.441,0.068-0.668c0.661-0.633,1.306-1.284,1.941-1.944c0.201-0.209,0.356-0.211,0.587-0.049
			c0.776,0.549,1.568,1.074,2.344,1.621c0.209,0.147,0.394,0.18,0.634,0.076c0.609-0.265,1.226-0.512,1.844-0.755
			c0.214-0.084,0.324-0.216,0.364-0.447c0.165-0.935,0.356-1.866,0.513-2.803c0.053-0.317,0.17-0.451,0.509-0.444
			c0.916,0.02,1.832,0.015,2.748,0.002c0.282-0.004,0.411,0.095,0.459,0.376c0.158,0.925,0.345,1.845,0.503,2.77
			c0.049,0.289,0.168,0.468,0.454,0.575c0.601,0.224,1.193,0.471,1.78,0.728c0.241,0.105,0.424,0.07,0.634-0.078
			c0.776-0.547,1.57-1.07,2.345-1.619c0.231-0.164,0.385-0.16,0.586,0.048c0.653,0.675,1.319,1.337,1.992,1.991
			c0.195,0.189,0.208,0.342,0.053,0.562c-0.541,0.768-1.061,1.548-1.601,2.316c-0.148,0.209-0.176,0.396-0.067,0.634
			c0.284,0.625,0.553,1.257,0.813,1.893c0.098,0.239,0.25,0.349,0.504,0.394c0.892,0.152,1.778,0.335,2.669,0.486
			c0.304,0.05,0.427,0.172,0.421,0.492c-0.018,0.927-0.013,1.854-0.002,2.782c0.003,0.269-0.1,0.39-0.364,0.435
			c-0.857,0.148-1.709,0.324-2.568,0.464c-0.323,0.052-0.5,0.2-0.612,0.504c-0.246,0.666-0.517,1.321-0.79,1.977
			c-0.089,0.214-0.066,0.385,0.067,0.574c0.506,0.722,0.989,1.458,1.504,2.174c0.188,0.262,0.154,0.429-0.066,0.642
			c-0.657,0.638-1.304,1.287-1.941,1.945c-0.196,0.203-0.356,0.226-0.589,0.061c-0.701-0.496-1.417-0.968-2.118-1.465
			c-0.225-0.16-0.417-0.191-0.656-0.036c-0.23,0.149-0.724,0.392-0.724,0.392H18.172z"/>
		<g>
			<path fill-rule="evenodd" clip-rule="evenodd" d="M28.768,119.74c-0.13-0.139-0.135-0.39,0.001-0.534
				c0.07-0.074,0.144-0.144,0.217-0.214c0.231-0.226,0.333-0.499,0.293-0.818c-0.066-0.525-0.557-0.917-1.136-0.818
				c-0.242,0.042-0.43,0.168-0.572,0.366c-0.105,0.148-0.174,0.312-0.235,0.48c-0.066,0.179-0.142,0.354-0.255,0.509
				c-0.111,0.151-0.251,0.26-0.438,0.305c-0.064,0.015-0.129,0.02-0.194,0.023c0.023-0.822-0.211-1.619-0.624-2.388
				c-0.543-1.012-1.259-1.896-2.145-2.634c-0.841-0.701-1.755-1.269-2.861-1.441c-0.835-0.13-1.594,0.037-2.158,0.715
				c-0.208,0.25-0.357,0.553-0.513,0.842c-0.059,0.111-0.125,0.176-0.241,0.215c-0.295,0.098-0.588,0.205-0.881,0.311
				c-0.346,0.124-0.691,0.248-1.059,0.381c0.076,0.058,0.129,0.101,0.185,0.142c0.464,0.336,0.926,0.674,1.393,1.004
				c0.105,0.075,0.146,0.151,0.142,0.282c-0.029,0.896,0.075,1.779,0.327,2.639c0.352,1.205,0.909,2.291,1.901,3.154
				c1.284,0.952,3.252,0.818,4.647,0.045c0.766-0.425,1.353-1.186,1.647-2.013c0.046-0.128,0.084-0.255,0.116-0.382
				c0.006,0,0.012,0,0.018,0c0.091,0.006,0.183,0.004,0.271,0.019c0.2,0.036,0.35,0.153,0.466,0.314
				c0.104,0.146,0.178,0.308,0.242,0.475c0.054,0.139,0.105,0.28,0.183,0.409c0.096,0.163,0.217,0.301,0.391,0.386
				c0.195,0.097,0.402,0.115,0.615,0.078c0.426-0.075,0.76-0.459,0.775-0.892c0.009-0.29-0.09-0.536-0.299-0.739
				C28.914,119.888,28.839,119.815,28.768,119.74z M28.338,117.744c0.303,0.002,0.548,0.251,0.546,0.558
				c-0.002,0.303-0.25,0.548-0.554,0.546c-0.309-0.002-0.553-0.25-0.55-0.556C27.783,117.985,28.03,117.742,28.338,117.744z
				 M28.326,121.206c-0.3-0.001-0.546-0.249-0.546-0.552c0-0.306,0.248-0.553,0.554-0.553c0.304,0.001,0.551,0.248,0.55,0.554
				C28.884,120.961,28.636,121.207,28.326,121.206z"/>
			<path d="M23.059,111.703c-0.003-0.181-0.04-0.356-0.111-0.522c-0.068-0.157-0.155-0.302-0.297-0.405
				c-0.107-0.079-0.226-0.109-0.353-0.056c-0.047,0.021-0.089,0.053-0.132,0.083c-0.017,0.011-0.03,0.016-0.049,0.013
				c-0.049-0.008-0.098-0.014-0.146-0.021c-0.057-0.007-0.114-0.014-0.175-0.021c0.006,0.013,0.011,0.022,0.016,0.032
				c0.041,0.08,0.082,0.161,0.123,0.24c0.009,0.018,0.009,0.032,0,0.05c-0.069,0.124-0.117,0.254-0.144,0.392
				c-0.037,0.195-0.037,0.386,0.04,0.578c0.188,0.282,0.377,0.34,0.621,0.336c0.016-0.002,0.029-0.003,0.042-0.004
				c0.137-0.013,0.258-0.062,0.358-0.157C23.007,112.094,23.063,111.908,23.059,111.703z"/>
			<path d="M21.333,110.744c-0.117-0.217-0.27-0.406-0.458-0.563c-0.18-0.15-0.375-0.272-0.612-0.309
				c-0.178-0.027-0.341,0.009-0.461,0.153c-0.044,0.054-0.077,0.119-0.11,0.18c-0.013,0.024-0.026,0.037-0.051,0.046
				c-0.063,0.021-0.125,0.044-0.188,0.067c-0.073,0.026-0.148,0.053-0.227,0.082c0.016,0.011,0.028,0.021,0.04,0.03
				c0.099,0.072,0.198,0.144,0.298,0.215c0.022,0.015,0.031,0.031,0.03,0.059c-0.006,0.191,0.016,0.38,0.069,0.565
				c0.075,0.256,0.195,0.489,0.407,0.674c0.402,0.225,0.667,0.177,0.959,0.021c0.02-0.012,0.034-0.021,0.049-0.031
				c0.158-0.099,0.274-0.235,0.337-0.412C21.511,111.25,21.464,110.99,21.333,110.744z"/>
			<path fill-rule="evenodd" clip-rule="evenodd" fill="#FFFFFF" d="M20.313,114.763c0.004,0.358-0.276,0.641-0.634,0.639
				c-0.339-0.002-0.627-0.285-0.633-0.621c-0.007-0.341,0.297-0.645,0.641-0.643C20.028,114.14,20.309,114.421,20.313,114.763z"/>
			<path fill-rule="evenodd" clip-rule="evenodd" fill="#FFFFFF" d="M28.891,118.29c0.003,0.318-0.244,0.569-0.56,0.567
				c-0.3-0.001-0.554-0.253-0.561-0.552c-0.005-0.303,0.263-0.573,0.568-0.571C28.639,117.736,28.888,117.986,28.891,118.29z"/>
			<path fill-rule="evenodd" clip-rule="evenodd" fill="#FFFFFF" d="M28.891,120.638c0.003,0.318-0.244,0.57-0.56,0.568
				c-0.3-0.003-0.554-0.253-0.561-0.552c-0.005-0.303,0.263-0.573,0.568-0.571C28.639,120.085,28.888,120.335,28.891,120.638z"/>
			<circle fill-rule="evenodd" clip-rule="evenodd" fill="#FFFFFF" cx="20.018" cy="110.304" r="0.148"/>
			<circle fill-rule="evenodd" clip-rule="evenodd" fill="#FFFFFF" cx="22.348" cy="110.977" r="0.107"/>
			<path d="M24.168,112.661c0.053-0.141,0.08-0.289,0.076-0.44c-0.003-0.145-0.025-0.284-0.104-0.408
				c-0.059-0.094-0.142-0.155-0.257-0.152c-0.043,0.001-0.086,0.013-0.128,0.022c-0.016,0.003-0.028,0.002-0.042-0.006
				c-0.036-0.021-0.072-0.041-0.107-0.061c-0.042-0.023-0.084-0.048-0.129-0.072c0.001,0.012,0.001,0.021,0.002,0.03
				c0.006,0.075,0.013,0.15,0.021,0.225c0.002,0.016-0.002,0.027-0.016,0.039c-0.091,0.074-0.17,0.16-0.233,0.26
				c-0.089,0.139-0.148,0.287-0.149,0.46c0.058,0.277,0.187,0.38,0.378,0.454c0.013,0.004,0.023,0.007,0.034,0.01
				c0.11,0.034,0.22,0.033,0.327-0.01C24.005,112.948,24.107,112.822,24.168,112.661z"/>
			<circle fill-rule="evenodd" clip-rule="evenodd" fill="#FFFFFF" cx="23.841" cy="111.874" r="0.089"/>
		</g>
		<g>
			<path fill="#FFFFFF" d="M14.873,128.694c0.041-0.092,0.095-0.165,0.163-0.222c0.068-0.057,0.143-0.099,0.227-0.125
				c0.083-0.025,0.167-0.039,0.25-0.039c0.085,0,0.168,0.013,0.251,0.039c0.083,0.026,0.157,0.068,0.225,0.125
				s0.122,0.13,0.163,0.222c0.041,0.091,0.062,0.202,0.062,0.333c0,0.13-0.021,0.241-0.062,0.332
				c-0.041,0.092-0.096,0.166-0.163,0.222c-0.067,0.058-0.142,0.097-0.225,0.12c-0.083,0.024-0.166,0.036-0.251,0.036
				c-0.083,0-0.166-0.012-0.25-0.036c-0.083-0.023-0.159-0.062-0.227-0.12c-0.067-0.056-0.122-0.13-0.163-0.222
				c-0.042-0.091-0.062-0.202-0.062-0.332C14.811,128.896,14.831,128.786,14.873,128.694z M15.085,129.262
				c0.015,0.074,0.039,0.141,0.074,0.2s0.081,0.105,0.139,0.14c0.058,0.034,0.129,0.051,0.213,0.051
				c0.085,0,0.155-0.017,0.213-0.051c0.058-0.035,0.104-0.082,0.139-0.14c0.034-0.059,0.059-0.125,0.073-0.2
				c0.015-0.076,0.021-0.153,0.021-0.234c0-0.082-0.007-0.159-0.021-0.233c-0.015-0.076-0.039-0.143-0.073-0.201
				c-0.035-0.058-0.081-0.104-0.139-0.14c-0.058-0.035-0.128-0.052-0.213-0.052c-0.084,0-0.156,0.017-0.213,0.052
				c-0.058,0.036-0.104,0.082-0.139,0.14s-0.059,0.125-0.074,0.201c-0.014,0.075-0.021,0.152-0.021,0.233
				C15.064,129.108,15.071,129.186,15.085,129.262z"/>
			<path fill="#FFFFFF" d="M16.499,128.964c-0.001-0.077-0.002-0.153-0.004-0.229c-0.002-0.076-0.004-0.148-0.007-0.218
				c-0.003-0.069-0.006-0.128-0.01-0.178c0.053,0.01,0.097,0.015,0.129,0.015s0.076-0.005,0.13-0.015
				c-0.008,0.05-0.013,0.098-0.017,0.144c-0.004,0.047-0.006,0.093-0.006,0.139h0.006c0.013-0.031,0.032-0.064,0.057-0.1
				c0.025-0.035,0.058-0.069,0.097-0.101c0.04-0.033,0.087-0.058,0.143-0.08c0.056-0.021,0.119-0.032,0.19-0.032
				c0.074,0,0.146,0.014,0.217,0.042s0.134,0.071,0.188,0.128c0.055,0.059,0.099,0.132,0.133,0.222
				c0.034,0.089,0.05,0.195,0.05,0.318c0,0.123-0.018,0.229-0.055,0.32c-0.037,0.09-0.084,0.165-0.143,0.225
				c-0.059,0.059-0.125,0.103-0.2,0.131c-0.075,0.028-0.15,0.042-0.225,0.042c-0.212,0-0.363-0.092-0.453-0.275h-0.006v0.182
				c0,0.062,0,0.13,0.001,0.205c0.001,0.077,0.003,0.152,0.005,0.228c0.002,0.075,0.004,0.146,0.007,0.215
				c0.002,0.067,0.006,0.126,0.01,0.173c-0.054-0.009-0.097-0.014-0.13-0.014s-0.076,0.005-0.129,0.014
				c0.003-0.046,0.007-0.105,0.01-0.173c0.003-0.069,0.005-0.141,0.007-0.215c0.001-0.076,0.003-0.151,0.004-0.228
				c0.001-0.075,0.001-0.143,0.001-0.205v-0.467C16.5,129.112,16.5,129.042,16.499,128.964z M17.505,128.73
				c-0.023-0.075-0.055-0.135-0.092-0.18c-0.038-0.045-0.081-0.077-0.128-0.094c-0.048-0.018-0.095-0.026-0.142-0.026
				c-0.077,0-0.143,0.017-0.197,0.049c-0.055,0.034-0.099,0.077-0.134,0.132c-0.035,0.055-0.06,0.119-0.075,0.192
				c-0.015,0.074-0.023,0.152-0.023,0.235c0,0.399,0.14,0.6,0.421,0.6c0.069,0,0.129-0.016,0.18-0.048
				c0.051-0.031,0.093-0.075,0.127-0.132c0.034-0.056,0.058-0.124,0.075-0.199c0.016-0.076,0.024-0.157,0.024-0.244
				C17.542,128.9,17.529,128.805,17.505,128.73z"/>
			<path fill="#FFFFFF" d="M18.186,128.511c0.113-0.134,0.276-0.201,0.492-0.201c0.102,0,0.19,0.016,0.264,0.047
				c0.074,0.032,0.136,0.075,0.187,0.128c0.05,0.053,0.087,0.115,0.111,0.186c0.024,0.07,0.036,0.147,0.036,0.228
				c0,0.02,0,0.039-0.001,0.057s-0.002,0.036-0.004,0.056c-0.104-0.001-0.207-0.003-0.308-0.006
				c-0.103-0.001-0.205-0.002-0.309-0.002c-0.063,0-0.126,0.001-0.189,0.002c-0.062,0.003-0.126,0.005-0.189,0.006
				c-0.002,0.009-0.003,0.024-0.003,0.044v0.038c0,0.075,0.011,0.145,0.033,0.21c0.022,0.065,0.054,0.121,0.097,0.168
				c0.042,0.047,0.094,0.084,0.156,0.112c0.061,0.028,0.132,0.042,0.213,0.042c0.038,0,0.078-0.005,0.118-0.015
				c0.041-0.01,0.08-0.025,0.119-0.044c0.038-0.019,0.074-0.039,0.108-0.064c0.033-0.024,0.063-0.053,0.088-0.082l0.015,0.009
				L19.2,129.57c-0.058,0.046-0.129,0.085-0.215,0.118c-0.085,0.033-0.175,0.05-0.267,0.05c-0.104,0-0.198-0.017-0.284-0.048
				c-0.086-0.032-0.16-0.079-0.222-0.139c-0.062-0.061-0.111-0.133-0.144-0.215c-0.034-0.083-0.05-0.172-0.05-0.268
				C18.018,128.832,18.073,128.646,18.186,128.511z M18.503,128.451c-0.049,0.034-0.089,0.073-0.121,0.123
				c-0.032,0.049-0.056,0.104-0.072,0.162c-0.016,0.059-0.027,0.114-0.03,0.166c0.06,0.002,0.122,0.004,0.186,0.006
				s0.127,0.002,0.189,0.002c0.063,0,0.127,0,0.193-0.002c0.065-0.002,0.129-0.004,0.19-0.006c0-0.052-0.004-0.106-0.013-0.165
				c-0.008-0.058-0.026-0.111-0.051-0.161c-0.026-0.05-0.062-0.091-0.108-0.125c-0.046-0.033-0.106-0.049-0.182-0.049
				C18.612,128.402,18.552,128.418,18.503,128.451z"/>
			<path fill="#FFFFFF" d="M20.434,128.57c-0.056-0.074-0.133-0.111-0.231-0.111c-0.134,0-0.233,0.041-0.296,0.125
				c-0.062,0.082-0.093,0.199-0.093,0.348v0.245c0,0.086,0.001,0.177,0.004,0.272c0.003,0.095,0.008,0.181,0.019,0.258
				c-0.044-0.004-0.087-0.006-0.13-0.006c-0.042,0-0.085,0.002-0.13,0.006c0.01-0.077,0.017-0.163,0.019-0.258
				c0.003-0.095,0.004-0.187,0.004-0.272v-0.299c0-0.087-0.001-0.177-0.004-0.273c-0.002-0.095-0.009-0.184-0.019-0.266
				c0.054,0.01,0.097,0.015,0.13,0.015c0.016,0,0.032-0.002,0.051-0.005c0.018-0.003,0.04-0.006,0.065-0.01
				c-0.006,0.077-0.009,0.153-0.009,0.231h0.005c0.054-0.083,0.119-0.146,0.194-0.191c0.076-0.046,0.166-0.068,0.27-0.068
				c0.054,0,0.108,0.008,0.163,0.023c0.056,0.015,0.104,0.041,0.149,0.08c0.044,0.037,0.08,0.088,0.109,0.152
				c0.027,0.064,0.041,0.146,0.041,0.247c0,0.082-0.002,0.167-0.006,0.254c-0.003,0.088-0.005,0.181-0.005,0.279v0.188
				c0,0.031,0,0.062,0.001,0.091c0,0.03,0.002,0.058,0.004,0.084c-0.039-0.004-0.08-0.006-0.123-0.006
				c-0.041,0-0.081,0.002-0.12,0.006c0.004-0.1,0.009-0.202,0.013-0.308c0.005-0.106,0.007-0.214,0.007-0.326v-0.176
				C20.518,128.754,20.49,128.645,20.434,128.57z"/>
			<path fill="#FFFFFF" d="M22.013,129.502c0.02,0.024,0.044,0.045,0.072,0.066c0.027,0.02,0.059,0.036,0.095,0.049
				c0.036,0.014,0.074,0.021,0.114,0.021c0.036,0,0.072-0.006,0.105-0.018s0.063-0.027,0.089-0.049
				c0.026-0.021,0.046-0.047,0.062-0.08c0.015-0.034,0.023-0.071,0.023-0.113c0-0.059-0.018-0.105-0.051-0.137
				c-0.034-0.031-0.076-0.057-0.125-0.078c-0.05-0.02-0.104-0.038-0.165-0.054c-0.059-0.015-0.114-0.037-0.164-0.064
				c-0.05-0.028-0.092-0.065-0.125-0.111c-0.033-0.046-0.05-0.109-0.05-0.19c0-0.063,0.011-0.122,0.032-0.174
				s0.052-0.099,0.092-0.137c0.041-0.038,0.091-0.068,0.15-0.091c0.059-0.021,0.127-0.033,0.205-0.033
				c0.071,0,0.131,0.01,0.18,0.029c0.049,0.02,0.096,0.037,0.14,0.052c-0.015,0.029-0.029,0.064-0.043,0.106
				c-0.014,0.043-0.022,0.076-0.026,0.099h-0.035c-0.016-0.046-0.045-0.087-0.089-0.125c-0.044-0.037-0.099-0.055-0.165-0.055
				c-0.029,0-0.058,0.005-0.086,0.014c-0.029,0.01-0.055,0.024-0.078,0.043c-0.023,0.02-0.042,0.045-0.058,0.076
				s-0.023,0.067-0.023,0.109c0,0.061,0.017,0.109,0.051,0.142c0.033,0.035,0.076,0.061,0.125,0.08
				c0.05,0.019,0.105,0.037,0.165,0.051s0.114,0.035,0.165,0.06c0.05,0.026,0.091,0.062,0.125,0.108
				c0.034,0.046,0.05,0.109,0.05,0.19c0,0.056-0.012,0.11-0.036,0.164c-0.024,0.054-0.059,0.103-0.104,0.146
				c-0.045,0.044-0.1,0.077-0.163,0.101c-0.064,0.024-0.136,0.037-0.216,0.037c-0.089,0-0.162-0.01-0.222-0.026
				c-0.06-0.018-0.109-0.038-0.15-0.061c0.012-0.025,0.023-0.06,0.036-0.103c0.012-0.043,0.019-0.079,0.019-0.108h0.035
				C21.978,129.458,21.993,129.48,22.013,129.502z"/>
			<path fill="#FFFFFF" d="M23.048,128.694c0.041-0.092,0.095-0.165,0.163-0.222c0.067-0.057,0.143-0.099,0.226-0.125
				c0.083-0.025,0.167-0.039,0.25-0.039c0.085,0,0.168,0.013,0.251,0.039c0.083,0.026,0.158,0.068,0.225,0.125
				c0.067,0.057,0.121,0.13,0.163,0.222c0.041,0.091,0.062,0.202,0.062,0.333c0,0.13-0.021,0.241-0.062,0.332
				c-0.042,0.092-0.096,0.166-0.163,0.222c-0.067,0.058-0.143,0.097-0.225,0.12c-0.083,0.024-0.166,0.036-0.251,0.036
				c-0.083,0-0.166-0.012-0.25-0.036c-0.083-0.023-0.159-0.062-0.226-0.12c-0.068-0.056-0.122-0.13-0.163-0.222
				c-0.042-0.091-0.062-0.202-0.062-0.332C22.986,128.896,23.007,128.786,23.048,128.694z M23.262,129.262
				c0.014,0.074,0.039,0.141,0.074,0.2c0.035,0.059,0.081,0.105,0.138,0.14c0.058,0.034,0.129,0.051,0.213,0.051
				c0.085,0,0.156-0.017,0.213-0.051c0.059-0.035,0.104-0.082,0.139-0.14c0.034-0.059,0.059-0.125,0.073-0.2
				c0.015-0.076,0.021-0.153,0.021-0.234c0-0.082-0.007-0.159-0.021-0.233c-0.015-0.076-0.039-0.143-0.073-0.201
				c-0.035-0.058-0.081-0.104-0.139-0.14c-0.057-0.035-0.128-0.052-0.213-0.052c-0.084,0-0.156,0.017-0.213,0.052
				c-0.058,0.036-0.104,0.082-0.138,0.14c-0.035,0.058-0.06,0.125-0.074,0.201c-0.014,0.075-0.021,0.152-0.021,0.233
				C23.24,129.108,23.248,129.186,23.262,129.262z"/>
			<path fill="#FFFFFF" d="M24.712,129.012c0.003-0.072,0.004-0.144,0.004-0.214c0-0.068,0-0.141-0.001-0.219
				c-0.001-0.079-0.002-0.159-0.004-0.24c0.048,0.01,0.088,0.015,0.121,0.015c0.03,0,0.07-0.005,0.118-0.015
				c-0.01,0.115-0.017,0.242-0.021,0.379c-0.005,0.138-0.007,0.277-0.007,0.422c0,0.1,0.009,0.176,0.026,0.23
				c0.017,0.052,0.038,0.092,0.063,0.119c0.027,0.032,0.061,0.056,0.103,0.077c0.041,0.02,0.089,0.031,0.145,0.031
				c0.081,0,0.148-0.018,0.202-0.054c0.054-0.035,0.093-0.079,0.119-0.131c0.013-0.033,0.023-0.06,0.031-0.083
				c0.008-0.022,0.015-0.053,0.02-0.093c0.005-0.037,0.008-0.09,0.009-0.155s0.001-0.155,0.001-0.268v-0.242
				c0-0.043,0-0.083-0.001-0.122c-0.001-0.038-0.002-0.075-0.004-0.109c0.021,0.004,0.041,0.007,0.061,0.01
				c0.019,0.003,0.039,0.005,0.061,0.005c0.021,0,0.041-0.002,0.06-0.005c0.02-0.003,0.039-0.006,0.058-0.01
				c-0.009,0.151-0.016,0.294-0.017,0.434c-0.002,0.14-0.003,0.288-0.003,0.443c0,0.087,0.001,0.171,0.003,0.253
				c0.001,0.083,0.004,0.163,0.009,0.239c-0.039-0.004-0.076-0.006-0.113-0.006s-0.074,0.002-0.112,0.006
				c0.001-0.016,0.003-0.036,0.004-0.055c0.001-0.02,0.001-0.039,0.001-0.061v-0.124H25.64c-0.05,0.093-0.115,0.161-0.193,0.204
				s-0.164,0.065-0.257,0.065c-0.15,0-0.268-0.041-0.353-0.12c-0.086-0.081-0.128-0.196-0.128-0.345
				C24.708,129.17,24.709,129.083,24.712,129.012z"/>
			<path fill="#FFFFFF" d="M26.916,128.543c-0.028-0.009-0.056-0.014-0.085-0.014c-0.046,0-0.087,0.01-0.124,0.031
				c-0.037,0.021-0.067,0.049-0.092,0.085c-0.025,0.036-0.044,0.078-0.058,0.126c-0.013,0.049-0.02,0.102-0.02,0.157v0.318
				c0,0.128,0,0.227,0.001,0.294c0.001,0.068,0.004,0.124,0.01,0.166c-0.039-0.004-0.077-0.006-0.115-0.006
				c-0.042,0-0.083,0.002-0.122,0.006c0.006-0.065,0.01-0.154,0.01-0.266c0.001-0.112,0.002-0.251,0.002-0.414v-0.093
				c0-0.075,0-0.161-0.002-0.259c0-0.098-0.004-0.211-0.01-0.337c0.022,0.004,0.042,0.007,0.061,0.01
				c0.019,0.003,0.04,0.005,0.061,0.005c0.018,0,0.036-0.002,0.055-0.005c0.019-0.003,0.039-0.006,0.06-0.01
				c-0.008,0.069-0.012,0.124-0.013,0.164c0,0.041-0.001,0.08-0.001,0.116l0.005,0.003c0.114-0.208,0.241-0.312,0.381-0.312
				c0.017,0,0.032,0.001,0.045,0.003c0.012,0.002,0.028,0.007,0.047,0.014c-0.01,0.024-0.015,0.059-0.017,0.106
				c-0.002,0.047-0.003,0.089-0.003,0.128l-0.021,0.015C26.962,128.563,26.944,128.553,26.916,128.543z"/>
			<path fill="#FFFFFF" d="M27.203,128.705c0.042-0.09,0.098-0.165,0.166-0.224c0.068-0.058,0.146-0.102,0.235-0.13
				c0.089-0.028,0.18-0.042,0.271-0.042c0.106,0,0.201,0.013,0.284,0.039c0.083,0.026,0.144,0.056,0.18,0.088
				c-0.014,0.029-0.025,0.06-0.036,0.091c-0.01,0.031-0.02,0.065-0.027,0.1h-0.024c-0.013-0.025-0.032-0.051-0.054-0.077
				c-0.023-0.026-0.051-0.05-0.083-0.072c-0.032-0.021-0.067-0.04-0.105-0.054c-0.039-0.015-0.081-0.022-0.127-0.022
				c-0.086,0-0.161,0.016-0.223,0.048c-0.063,0.031-0.114,0.075-0.153,0.131c-0.04,0.055-0.069,0.122-0.086,0.197
				c-0.019,0.076-0.028,0.158-0.028,0.246c0,0.198,0.042,0.347,0.127,0.449c0.084,0.101,0.208,0.151,0.372,0.151
				c0.038,0,0.077-0.005,0.118-0.015s0.08-0.025,0.119-0.044c0.039-0.019,0.074-0.039,0.108-0.064
				c0.033-0.024,0.063-0.053,0.088-0.082l0.015,0.009c-0.01,0.046-0.015,0.094-0.017,0.142c-0.059,0.046-0.129,0.085-0.215,0.118
				c-0.086,0.033-0.175,0.05-0.267,0.05c-0.083,0-0.166-0.012-0.25-0.037c-0.083-0.024-0.16-0.064-0.226-0.122
				c-0.068-0.056-0.122-0.13-0.163-0.22c-0.042-0.091-0.062-0.201-0.062-0.331C27.139,128.902,27.16,128.795,27.203,128.705z"/>
			<path fill="#FFFFFF" d="M28.73,128.511c0.112-0.134,0.276-0.201,0.491-0.201c0.103,0,0.19,0.016,0.265,0.047
				c0.073,0.032,0.136,0.075,0.186,0.128c0.05,0.053,0.087,0.115,0.111,0.186c0.023,0.07,0.036,0.147,0.036,0.228
				c0,0.02,0,0.039-0.001,0.057s-0.002,0.036-0.004,0.056c-0.104-0.001-0.207-0.003-0.309-0.006
				c-0.102-0.001-0.205-0.002-0.309-0.002c-0.063,0-0.126,0.001-0.189,0.002c-0.062,0.003-0.125,0.005-0.189,0.006
				c-0.001,0.009-0.002,0.024-0.002,0.044v0.038c0,0.075,0.011,0.145,0.033,0.21c0.022,0.065,0.055,0.121,0.097,0.168
				c0.042,0.047,0.094,0.084,0.155,0.112c0.062,0.028,0.134,0.042,0.214,0.042c0.038,0,0.078-0.005,0.118-0.015
				s0.08-0.025,0.118-0.044c0.039-0.019,0.075-0.039,0.108-0.064c0.034-0.024,0.063-0.053,0.088-0.082l0.014,0.009l-0.017,0.142
				c-0.058,0.046-0.129,0.085-0.215,0.118c-0.085,0.033-0.174,0.05-0.267,0.05c-0.104,0-0.198-0.017-0.285-0.048
				c-0.085-0.032-0.159-0.079-0.222-0.139c-0.062-0.061-0.11-0.133-0.144-0.215c-0.034-0.083-0.051-0.172-0.051-0.268
				C28.561,128.832,28.617,128.646,28.73,128.511z M29.047,128.451c-0.049,0.034-0.09,0.073-0.121,0.123
				c-0.032,0.049-0.056,0.104-0.072,0.162c-0.017,0.059-0.026,0.114-0.03,0.166c0.059,0.002,0.122,0.004,0.186,0.006
				s0.127,0.002,0.189,0.002c0.063,0,0.128,0,0.193-0.002c0.065-0.002,0.129-0.004,0.191-0.006c0-0.052-0.005-0.106-0.013-0.165
				c-0.009-0.058-0.026-0.111-0.052-0.161c-0.025-0.05-0.062-0.091-0.108-0.125c-0.046-0.033-0.107-0.049-0.182-0.049
				C29.156,128.402,29.096,128.418,29.047,128.451z"/>
			<path fill="#FFFFFF" d="M14.608,132.165c0.042-0.091,0.098-0.166,0.166-0.224c0.068-0.058,0.146-0.102,0.234-0.129
				c0.089-0.027,0.179-0.042,0.271-0.042c0.106,0,0.2,0.014,0.284,0.039c0.083,0.026,0.144,0.055,0.18,0.087
				c-0.013,0.03-0.025,0.06-0.036,0.091c-0.011,0.031-0.02,0.065-0.028,0.099h-0.023c-0.013-0.025-0.032-0.049-0.055-0.077
				c-0.023-0.026-0.05-0.049-0.082-0.072c-0.032-0.022-0.067-0.04-0.106-0.054c-0.038-0.014-0.081-0.022-0.126-0.022
				c-0.087,0-0.161,0.016-0.224,0.048c-0.062,0.031-0.113,0.075-0.153,0.131c-0.039,0.056-0.068,0.122-0.086,0.197
				c-0.018,0.077-0.027,0.158-0.027,0.247c0,0.198,0.042,0.347,0.127,0.448c0.085,0.102,0.209,0.151,0.372,0.151
				c0.038,0,0.078-0.005,0.118-0.015c0.041-0.011,0.08-0.025,0.119-0.043c0.038-0.019,0.075-0.04,0.108-0.065
				c0.033-0.025,0.062-0.052,0.088-0.082l0.014,0.01c-0.01,0.046-0.015,0.093-0.018,0.141c-0.058,0.046-0.129,0.086-0.214,0.119
				c-0.086,0.032-0.175,0.048-0.267,0.048c-0.083,0-0.166-0.012-0.249-0.036c-0.084-0.024-0.16-0.064-0.227-0.121
				c-0.067-0.057-0.121-0.13-0.163-0.221c-0.041-0.09-0.062-0.2-0.062-0.332C14.545,132.362,14.566,132.254,14.608,132.165z"/>
			<path fill="#FFFFFF" d="M16.029,132.154c0.042-0.091,0.096-0.165,0.163-0.222c0.068-0.056,0.143-0.097,0.226-0.124
				c0.084-0.025,0.167-0.039,0.25-0.039c0.085,0,0.168,0.014,0.251,0.039c0.083,0.026,0.158,0.067,0.225,0.124
				c0.068,0.057,0.122,0.131,0.164,0.222c0.041,0.092,0.062,0.202,0.062,0.333c0,0.131-0.021,0.243-0.062,0.333
				c-0.042,0.091-0.096,0.165-0.164,0.222c-0.067,0.057-0.142,0.096-0.225,0.12c-0.083,0.023-0.167,0.034-0.251,0.034
				c-0.082,0-0.166-0.011-0.25-0.034c-0.083-0.024-0.158-0.063-0.226-0.12c-0.067-0.057-0.121-0.131-0.163-0.222
				s-0.062-0.202-0.062-0.333C15.967,132.356,15.987,132.246,16.029,132.154z M16.242,132.721c0.015,0.074,0.039,0.142,0.073,0.2
				c0.035,0.06,0.081,0.105,0.139,0.141c0.058,0.034,0.129,0.051,0.213,0.051c0.085,0,0.156-0.017,0.214-0.051
				c0.058-0.036,0.104-0.082,0.139-0.141c0.035-0.058,0.059-0.125,0.074-0.2c0.014-0.075,0.021-0.153,0.021-0.234
				c0-0.08-0.007-0.158-0.021-0.233c-0.015-0.075-0.039-0.141-0.074-0.2c-0.035-0.06-0.081-0.105-0.139-0.14
				c-0.058-0.035-0.129-0.053-0.214-0.053c-0.084,0-0.155,0.018-0.213,0.053c-0.058,0.034-0.104,0.08-0.139,0.14
				c-0.035,0.059-0.059,0.125-0.073,0.2c-0.014,0.075-0.021,0.153-0.021,0.233C16.221,132.567,16.228,132.646,16.242,132.721z"/>
			<path fill="#FFFFFF" d="M17.654,132.165c0.042-0.091,0.098-0.166,0.166-0.224c0.068-0.058,0.146-0.102,0.235-0.129
				c0.089-0.027,0.179-0.042,0.271-0.042c0.106,0,0.201,0.014,0.284,0.039c0.083,0.026,0.144,0.055,0.18,0.087
				c-0.013,0.03-0.025,0.06-0.036,0.091c-0.011,0.031-0.02,0.065-0.027,0.099h-0.024c-0.013-0.025-0.031-0.049-0.054-0.077
				c-0.023-0.026-0.051-0.049-0.083-0.072c-0.032-0.022-0.066-0.04-0.105-0.054c-0.038-0.014-0.081-0.022-0.127-0.022
				c-0.086,0-0.16,0.016-0.223,0.048c-0.062,0.031-0.114,0.075-0.153,0.131s-0.068,0.122-0.087,0.197
				c-0.018,0.077-0.027,0.158-0.027,0.247c0,0.198,0.042,0.347,0.127,0.448c0.084,0.102,0.208,0.151,0.372,0.151
				c0.039,0,0.078-0.005,0.118-0.015c0.041-0.011,0.08-0.025,0.118-0.043c0.039-0.019,0.075-0.04,0.108-0.065
				c0.034-0.025,0.063-0.052,0.088-0.082l0.014,0.01c-0.01,0.046-0.015,0.093-0.017,0.141c-0.058,0.046-0.129,0.086-0.215,0.119
				c-0.086,0.032-0.175,0.048-0.267,0.048c-0.083,0-0.165-0.012-0.249-0.036c-0.084-0.024-0.16-0.064-0.227-0.121
				c-0.068-0.057-0.122-0.13-0.163-0.221c-0.042-0.09-0.062-0.2-0.062-0.332C17.591,132.362,17.611,132.254,17.654,132.165z"/>
			<path fill="#FFFFFF" d="M19.074,132.154c0.042-0.091,0.096-0.165,0.164-0.222c0.067-0.056,0.143-0.097,0.226-0.124
				c0.084-0.025,0.167-0.039,0.25-0.039c0.084,0,0.168,0.014,0.251,0.039c0.082,0.026,0.157,0.067,0.225,0.124
				c0.067,0.057,0.122,0.131,0.163,0.222c0.042,0.092,0.062,0.202,0.062,0.333c0,0.131-0.02,0.243-0.062,0.333
				c-0.041,0.091-0.095,0.165-0.163,0.222c-0.068,0.057-0.143,0.096-0.225,0.12c-0.083,0.023-0.167,0.034-0.251,0.034
				c-0.083,0-0.166-0.011-0.25-0.034c-0.083-0.024-0.159-0.063-0.226-0.12c-0.067-0.057-0.122-0.131-0.164-0.222
				c-0.041-0.091-0.062-0.202-0.062-0.333C19.012,132.356,19.033,132.246,19.074,132.154z M19.287,132.721
				c0.015,0.074,0.039,0.142,0.074,0.2c0.034,0.06,0.081,0.105,0.139,0.141c0.057,0.034,0.128,0.051,0.213,0.051
				c0.084,0,0.155-0.017,0.213-0.051c0.057-0.036,0.103-0.082,0.138-0.141c0.035-0.058,0.059-0.125,0.073-0.2
				c0.015-0.075,0.021-0.153,0.021-0.234c0-0.08-0.007-0.158-0.021-0.233c-0.014-0.075-0.039-0.141-0.073-0.2
				c-0.035-0.06-0.081-0.105-0.138-0.14c-0.058-0.035-0.129-0.053-0.213-0.053c-0.085,0-0.156,0.018-0.213,0.053
				c-0.058,0.034-0.104,0.08-0.139,0.14c-0.035,0.059-0.059,0.125-0.074,0.2c-0.014,0.075-0.021,0.153-0.021,0.233
				C19.266,132.567,19.273,132.646,19.287,132.721z"/>
			<path fill="#FFFFFF" d="M20.699,132.165c0.042-0.091,0.098-0.166,0.166-0.224c0.069-0.058,0.147-0.102,0.235-0.129
				c0.088-0.027,0.178-0.042,0.271-0.042c0.106,0,0.2,0.014,0.284,0.039c0.083,0.026,0.144,0.055,0.18,0.087
				c-0.014,0.03-0.025,0.06-0.036,0.091c-0.011,0.031-0.02,0.065-0.028,0.099H21.75c-0.014-0.025-0.032-0.049-0.056-0.077
				c-0.022-0.026-0.05-0.049-0.082-0.072c-0.032-0.022-0.066-0.04-0.105-0.054s-0.081-0.022-0.126-0.022
				c-0.087,0-0.162,0.016-0.225,0.048c-0.062,0.031-0.112,0.075-0.152,0.131s-0.068,0.122-0.087,0.197
				c-0.018,0.077-0.027,0.158-0.027,0.247c0,0.198,0.042,0.347,0.126,0.448c0.085,0.102,0.209,0.151,0.372,0.151
				c0.039,0,0.078-0.005,0.119-0.015c0.041-0.011,0.08-0.025,0.118-0.043c0.038-0.019,0.074-0.04,0.108-0.065
				c0.034-0.025,0.063-0.052,0.088-0.082l0.015,0.01c-0.009,0.046-0.016,0.093-0.018,0.141c-0.057,0.046-0.129,0.086-0.215,0.119
				c-0.085,0.032-0.174,0.048-0.266,0.048c-0.083,0-0.166-0.012-0.25-0.036c-0.083-0.024-0.159-0.064-0.227-0.121
				c-0.066-0.057-0.122-0.13-0.163-0.221c-0.042-0.09-0.062-0.2-0.062-0.332C20.636,132.362,20.657,132.254,20.699,132.165z"/>
			<path fill="#FFFFFF" d="M22.146,131.61c-0.001-0.077-0.002-0.152-0.004-0.228c-0.002-0.074-0.004-0.146-0.007-0.214
				s-0.006-0.126-0.01-0.174c0.053,0.01,0.096,0.015,0.129,0.015c0.032,0,0.076-0.004,0.13-0.015
				c-0.004,0.048-0.007,0.105-0.01,0.173c-0.003,0.067-0.005,0.138-0.007,0.211c-0.002,0.074-0.003,0.149-0.004,0.224
				c-0.001,0.074-0.001,0.144-0.001,0.207v0.219h0.006c0.054-0.082,0.119-0.146,0.193-0.191c0.076-0.045,0.166-0.068,0.27-0.068
				c0.053,0,0.108,0.008,0.163,0.023c0.056,0.015,0.104,0.042,0.149,0.08c0.045,0.038,0.081,0.088,0.109,0.152
				c0.028,0.065,0.042,0.147,0.042,0.247c0,0.083-0.002,0.168-0.006,0.256c-0.004,0.087-0.006,0.18-0.006,0.278v0.188
				c0,0.031,0,0.061,0.001,0.091s0.003,0.059,0.005,0.085c-0.039-0.003-0.08-0.005-0.123-0.005c-0.041,0-0.081,0.002-0.12,0.005
				c0.004-0.1,0.008-0.203,0.013-0.309c0.005-0.105,0.007-0.214,0.007-0.326v-0.175c0-0.145-0.028-0.254-0.083-0.327
				c-0.056-0.075-0.132-0.111-0.23-0.111c-0.135,0-0.233,0.042-0.295,0.124c-0.063,0.083-0.094,0.199-0.094,0.35
				c0,0.053,0,0.116,0.001,0.186c0.001,0.072,0.002,0.143,0.004,0.215s0.004,0.142,0.007,0.209c0.003,0.068,0.006,0.123,0.01,0.165
				c-0.044-0.003-0.088-0.005-0.13-0.005c-0.042,0-0.085,0.002-0.129,0.005c0.003-0.045,0.007-0.1,0.01-0.167
				c0.003-0.067,0.005-0.138,0.007-0.213c0.002-0.074,0.003-0.15,0.004-0.228c0.001-0.077,0.001-0.148,0.001-0.213v-0.522
				C22.147,131.759,22.146,131.687,22.146,131.61z"/>
			<path fill="#FFFFFF" d="M23.805,131.193c0.029-0.03,0.063-0.044,0.104-0.044c0.04,0,0.075,0.014,0.104,0.044
				c0.028,0.029,0.043,0.063,0.043,0.104c0,0.04-0.015,0.075-0.043,0.104c-0.029,0.029-0.064,0.042-0.104,0.042
				c-0.041,0-0.075-0.013-0.104-0.042c-0.029-0.03-0.043-0.064-0.043-0.104C23.762,131.256,23.776,131.222,23.805,131.193z
				 M23.798,132.065c-0.003-0.096-0.009-0.185-0.019-0.267c0.054,0.009,0.097,0.014,0.13,0.014s0.076-0.005,0.13-0.014
				c-0.01,0.083-0.016,0.171-0.019,0.267c-0.003,0.095-0.004,0.186-0.004,0.272v0.301c0,0.086,0.001,0.177,0.004,0.271
				c0.002,0.096,0.009,0.182,0.019,0.258c-0.044-0.003-0.087-0.005-0.13-0.005c-0.043,0-0.086,0.002-0.13,0.005
				c0.01-0.077,0.016-0.163,0.019-0.258c0.003-0.095,0.004-0.186,0.004-0.271v-0.301C23.802,132.251,23.801,132.16,23.798,132.065z"
				/>
			<path fill="#FFFFFF" d="M24.495,132.165c0.042-0.091,0.097-0.166,0.166-0.224c0.068-0.058,0.146-0.102,0.235-0.129
				c0.088-0.027,0.179-0.042,0.271-0.042c0.105,0,0.201,0.014,0.284,0.039c0.083,0.026,0.144,0.055,0.18,0.087
				c-0.013,0.03-0.026,0.06-0.036,0.091c-0.01,0.031-0.02,0.065-0.028,0.099h-0.022c-0.013-0.025-0.032-0.049-0.055-0.077
				c-0.023-0.026-0.051-0.049-0.082-0.072c-0.032-0.022-0.067-0.04-0.106-0.054c-0.038-0.014-0.081-0.022-0.126-0.022
				c-0.087,0-0.161,0.016-0.224,0.048c-0.062,0.031-0.113,0.075-0.153,0.131c-0.039,0.056-0.069,0.122-0.086,0.197
				c-0.018,0.077-0.028,0.158-0.028,0.247c0,0.198,0.042,0.347,0.127,0.448c0.085,0.102,0.209,0.151,0.372,0.151
				c0.039,0,0.078-0.005,0.118-0.015c0.041-0.011,0.08-0.025,0.119-0.043c0.038-0.019,0.075-0.04,0.108-0.065
				c0.033-0.025,0.063-0.052,0.088-0.082l0.014,0.01c-0.009,0.046-0.016,0.093-0.017,0.141c-0.058,0.046-0.129,0.086-0.215,0.119
				c-0.085,0.032-0.174,0.048-0.267,0.048c-0.083,0-0.166-0.012-0.249-0.036c-0.084-0.024-0.16-0.064-0.227-0.121
				c-0.067-0.057-0.122-0.13-0.163-0.221c-0.041-0.09-0.062-0.2-0.062-0.332C24.431,132.362,24.453,132.254,24.495,132.165z"/>
			<path fill="#FFFFFF" d="M25.941,131.61c-0.001-0.077-0.002-0.152-0.005-0.228c-0.002-0.074-0.004-0.146-0.007-0.214
				s-0.006-0.126-0.01-0.174c0.054,0.01,0.097,0.015,0.13,0.015s0.076-0.004,0.13-0.015c-0.003,0.048-0.007,0.106-0.01,0.174
				s-0.005,0.14-0.007,0.214c-0.002,0.076-0.003,0.151-0.004,0.228c-0.001,0.076-0.001,0.148-0.001,0.213v0.524
				c0,0.037,0.011,0.056,0.035,0.056c0.016,0,0.032-0.007,0.051-0.02c0.018-0.015,0.039-0.03,0.062-0.047
				c0.018-0.014,0.047-0.039,0.088-0.078c0.042-0.038,0.087-0.083,0.139-0.134c0.051-0.051,0.103-0.105,0.157-0.163
				c0.054-0.057,0.103-0.113,0.147-0.165c0.039,0.009,0.075,0.014,0.11,0.014c0.021,0,0.042-0.001,0.063-0.004
				c0.022-0.002,0.048-0.006,0.081-0.01c-0.121,0.098-0.237,0.195-0.348,0.29c-0.111,0.095-0.216,0.191-0.316,0.29
				c0.11,0.132,0.222,0.265,0.339,0.397c0.116,0.133,0.235,0.263,0.356,0.392c-0.033-0.003-0.062-0.005-0.088-0.005
				c-0.026,0-0.052,0-0.077,0c-0.021,0-0.044,0-0.069,0s-0.051,0.002-0.078,0.005c-0.042-0.048-0.09-0.104-0.144-0.168
				c-0.054-0.065-0.107-0.128-0.16-0.192s-0.104-0.123-0.152-0.178c-0.048-0.057-0.089-0.103-0.124-0.139
				c-0.005-0.007-0.012-0.014-0.02-0.02c-0.008-0.005-0.016-0.008-0.023-0.008c-0.02,0-0.029,0.011-0.029,0.035v0.173
				c0,0.086,0.001,0.169,0.004,0.251c0.003,0.083,0.009,0.164,0.019,0.247c-0.044-0.003-0.087-0.005-0.13-0.005
				c-0.042,0-0.085,0.002-0.13,0.005c0.004-0.045,0.007-0.1,0.01-0.167c0.003-0.067,0.005-0.138,0.007-0.213
				c0.002-0.074,0.003-0.15,0.005-0.228c0-0.077,0.001-0.148,0.001-0.213v-0.522C25.942,131.759,25.941,131.687,25.941,131.61z"/>
			<path fill="#FFFFFF" d="M27.412,131.971c0.112-0.135,0.276-0.202,0.492-0.202c0.102,0,0.189,0.016,0.264,0.048
				c0.074,0.031,0.136,0.073,0.186,0.126c0.05,0.053,0.087,0.114,0.111,0.187c0.024,0.071,0.036,0.146,0.036,0.228
				c0,0.019,0,0.037-0.001,0.056c-0.001,0.018-0.002,0.037-0.004,0.056c-0.104-0.001-0.207-0.003-0.309-0.005
				c-0.102-0.002-0.204-0.003-0.309-0.003c-0.063,0-0.125,0.001-0.188,0.003c-0.062,0.002-0.125,0.004-0.189,0.005
				c-0.002,0.01-0.002,0.024-0.002,0.043v0.037c0,0.075,0.01,0.146,0.033,0.211c0.022,0.065,0.054,0.122,0.097,0.168
				c0.042,0.047,0.094,0.085,0.156,0.112c0.061,0.028,0.132,0.042,0.213,0.042c0.038,0,0.078-0.005,0.118-0.015
				c0.041-0.011,0.08-0.025,0.119-0.043c0.038-0.019,0.074-0.04,0.107-0.065c0.034-0.025,0.063-0.052,0.088-0.082l0.015,0.01
				l-0.018,0.141c-0.057,0.046-0.129,0.086-0.215,0.119c-0.085,0.032-0.174,0.048-0.267,0.048c-0.104,0-0.199-0.017-0.284-0.048
				c-0.086-0.032-0.16-0.077-0.223-0.138c-0.062-0.062-0.11-0.132-0.144-0.216c-0.034-0.082-0.05-0.171-0.05-0.268
				C27.243,132.291,27.299,132.105,27.412,131.971z M27.729,131.911c-0.049,0.033-0.089,0.072-0.121,0.122
				c-0.032,0.05-0.056,0.103-0.072,0.161c-0.017,0.059-0.027,0.114-0.031,0.166c0.06,0.002,0.122,0.003,0.187,0.005
				c0.064,0.003,0.127,0.004,0.188,0.004c0.063,0,0.128-0.001,0.193-0.004c0.065-0.002,0.128-0.003,0.19-0.005
				c0-0.052-0.004-0.106-0.013-0.164c-0.008-0.057-0.026-0.111-0.052-0.161c-0.026-0.05-0.062-0.091-0.108-0.124
				c-0.046-0.034-0.106-0.05-0.182-0.05C27.838,131.861,27.778,131.877,27.729,131.911z"/>
			<path fill="#FFFFFF" d="M29.66,132.031c-0.056-0.075-0.133-0.111-0.231-0.111c-0.134,0-0.233,0.042-0.295,0.124
				c-0.062,0.083-0.094,0.199-0.094,0.35v0.245c0,0.086,0.001,0.177,0.004,0.271c0.003,0.096,0.009,0.182,0.02,0.258
				c-0.045-0.003-0.088-0.005-0.131-0.005c-0.042,0-0.085,0.002-0.13,0.005c0.01-0.077,0.016-0.163,0.019-0.258
				c0.003-0.095,0.005-0.186,0.005-0.271v-0.301c0-0.086-0.002-0.177-0.005-0.272c-0.003-0.096-0.009-0.185-0.019-0.267
				c0.055,0.009,0.098,0.014,0.13,0.014c0.016,0,0.032-0.001,0.051-0.004c0.018-0.002,0.04-0.006,0.064-0.01
				c-0.006,0.078-0.009,0.154-0.009,0.23h0.006c0.054-0.082,0.119-0.146,0.194-0.191c0.075-0.045,0.165-0.068,0.269-0.068
				c0.054,0,0.109,0.008,0.164,0.023s0.104,0.042,0.149,0.08c0.044,0.038,0.081,0.088,0.108,0.152
				c0.029,0.065,0.042,0.147,0.042,0.247c0,0.083-0.002,0.168-0.006,0.256c-0.004,0.087-0.006,0.18-0.006,0.278v0.188
				c0,0.031,0,0.061,0.001,0.091s0.002,0.059,0.004,0.085c-0.039-0.003-0.08-0.005-0.123-0.005c-0.041,0-0.081,0.002-0.12,0.005
				c0.004-0.1,0.008-0.203,0.013-0.309c0.005-0.105,0.007-0.214,0.007-0.326v-0.175C29.743,132.213,29.715,132.104,29.66,132.031z"
				/>
		</g>
	</g>
	<g>
		<path fill="#FFFFFF" d="M126.625,128.966h1.064v1.656h-1.926v-2.849h1.926v0.488h-1.387v1.873h0.881v-0.704h-0.559V128.966z"/>
		<path fill="#FFFFFF" d="M128.62,130.623h-0.539v-2.849h0.539l0.881,1.597v-1.597h0.506v2.849H129.5l-0.881-1.645V130.623z"/>
		<path fill="#FFFFFF" d="M130.397,130.623v-2.849h1.723l0.203,0.25v2.349l-0.201,0.25H130.397z M131.817,128.262h-0.881v1.873
			h0.881V128.262z"/>
	</g>
</g>
</svg>
